<svg width="16" height="17" viewBox="0 0 16 17" fill="none" xmlns="http://www.w3.org/2000/svg">
<path d="M10.1739 14.6814L15.7549 3.47169C15.9741 3.0293 16.0516 2.53008 15.9766 2.0421C15.9017 1.55412 15.678 1.10112 15.3361 0.744863C14.9942 0.388609 14.5507 0.146437 14.066 0.0513647C13.5814 -0.0437071 13.0792 0.0129483 12.628 0.213606L8.33431 2.1414C8.2305 2.18515 8.119 2.2078 8.00634 2.208C7.89368 2.20821 7.7821 2.18598 7.67812 2.14261L3.37737 0.230617C3.01159 0.0686585 2.61113 0.000642962 2.21238 0.0327517C1.81362 0.0648604 1.42921 0.196075 1.09408 0.414472C0.758958 0.632869 0.483739 0.931522 0.293442 1.28329C0.103144 1.63506 0.0037999 2.02879 0.00443797 2.4287C0.00886589 2.80326 0.0970372 3.17209 0.262496 3.50817L5.88469 14.6972C6.08533 15.0941 6.39233 15.4275 6.77145 15.6601C7.15057 15.8927 7.58689 16.0155 8.03173 16.0147C8.47657 16.0139 8.91243 15.8895 9.29069 15.6555C9.66895 15.4215 9.97473 15.087 10.1739 14.6894L10.1739 14.6814ZM7.31577 13.9747L1.69358 2.78558C1.62267 2.63865 1.5984 2.47356 1.62401 2.31244C1.64963 2.15133 1.7239 2.00189 1.83688 1.88417C1.94986 1.76645 2.09615 1.68608 2.25612 1.65383C2.41609 1.62158 2.5821 1.63899 2.73189 1.70373L7.03263 3.60772C7.09006 3.63236 7.14888 3.65362 7.2088 3.67139L7.21893 9.18308C7.21932 9.39524 7.30401 9.59856 7.45436 9.7483C7.6047 9.89805 7.8084 9.98196 8.02063 9.98156C8.23287 9.98117 8.43625 9.89652 8.58605 9.74622C8.73584 9.59593 8.81978 9.3923 8.81939 9.18014L8.80926 3.66845C8.86911 3.65046 8.92785 3.62898 8.98519 3.60413L13.2789 1.68433C13.4284 1.61904 13.5944 1.60102 13.7545 1.63268C13.9146 1.66435 14.0611 1.74418 14.1746 1.86149C14.288 1.97879 14.3628 2.12795 14.389 2.28897C14.4152 2.44999 14.3915 2.61517 14.3212 2.76236L8.74018 13.972C8.67326 14.1032 8.57144 14.2133 8.44592 14.2904C8.3204 14.3674 8.17605 14.4083 8.02877 14.4085C7.88149 14.4088 7.737 14.3685 7.6112 14.2919C7.48539 14.2153 7.38316 14.1056 7.31577 13.9747Z" fill="#F4F2F7"/>
</svg>
