<svg width="42" height="42" viewBox="0 0 42 42" fill="none" xmlns="http://www.w3.org/2000/svg">
<path d="M0 5C0 2.23858 2.23858 0 5 0H37C39.7614 0 42 2.23858 42 5V37C42 39.7614 39.7614 42 37 42H5C2.23858 42 0 39.7614 0 37V5Z" fill="#57679F"/>
<path d="M20.1667 15.5531H22.1813V19.0312H16.7345V34.5056L16.5901 34.5449C16.3932 34.5974 13.801 34.5974 13.2432 34.5384L12.797 34.499V19.0312H7.3501V15.5531L9.07604 15.5334C10.021 15.5202 12.4492 15.5202 14.4704 15.5334C16.4917 15.5465 19.051 15.5531 20.1667 15.5531V15.5531ZM35.5426 32.8649C34.742 33.7115 33.8823 34.184 32.4517 34.5712C31.8282 34.7418 31.7232 34.7484 30.3188 34.7418C28.9145 34.7352 28.8029 34.7352 28.1204 34.5581C26.3551 34.1052 24.931 33.2193 23.9598 31.9659C23.6842 31.6115 23.2313 30.8765 23.2313 30.7846C23.2313 30.7584 23.297 30.6993 23.3823 30.6599C23.4676 30.6206 23.6448 30.509 23.7892 30.4237C23.9335 30.3384 24.196 30.1809 24.3732 30.089C24.5504 29.9971 25.0623 29.6952 25.5085 29.4262C25.9548 29.1571 26.3617 28.9406 26.4076 28.9406C26.4535 28.9406 26.5388 29.0324 26.6045 29.144C26.9982 29.8068 27.917 30.6534 28.5667 30.9421C28.967 31.1127 29.8529 31.3031 30.2795 31.3031C30.6732 31.3031 31.3951 31.1324 31.7823 30.9552C32.1957 30.7649 32.4057 30.5746 32.6551 30.194C32.8257 29.9249 32.8454 29.8527 32.8388 29.3409C32.8388 28.8684 32.8126 28.7371 32.6813 28.5206C32.3138 27.9168 31.8151 27.6018 29.7938 26.7093C27.707 25.784 26.7685 25.2327 26.0073 24.4912C25.4429 23.9399 25.3313 23.789 24.977 23.0999C24.5176 22.214 24.4585 21.9252 24.452 20.6062C24.4454 19.6809 24.4651 19.379 24.5635 19.064C24.7013 18.5915 25.1476 17.6793 25.351 17.4496C25.771 16.9574 25.922 16.8065 26.2173 16.5637C27.1098 15.8287 28.501 15.3431 29.8332 15.2971C29.9842 15.2971 30.4829 15.3234 30.9488 15.3562C32.2876 15.4677 33.1998 15.7959 34.0792 16.4981C34.742 17.0231 35.746 18.2568 35.6476 18.4209C35.582 18.5193 32.9635 20.2649 32.7929 20.3174C32.6879 20.3502 32.6157 20.3109 32.4713 20.1402C31.5788 19.0706 31.2179 18.8409 30.3517 18.7884C29.7348 18.749 29.4067 18.8212 28.9932 19.0968C28.5601 19.3856 28.3501 19.8252 28.3501 20.4356C28.3567 21.3281 28.6979 21.7481 29.9579 22.3715C30.7717 22.7718 31.4673 23.0999 31.5198 23.0999C31.5985 23.0999 33.2851 23.9399 33.7248 24.2024C35.7723 25.4034 36.6057 26.6371 36.8223 28.7634C36.9798 30.3646 36.527 31.8281 35.5426 32.8649V32.8649Z" fill="white"/>
</svg>
