<svg width="441" height="367" viewBox="0 0 441 367" fill="none" xmlns="http://www.w3.org/2000/svg">
<g clip-path="url(#clip0_358_331)">
<path d="M397.623 190.993C397.68 236.405 379.308 280.07 346.369 312.809C344.384 314.796 342.344 316.734 340.251 318.625C337.062 321.523 333.767 324.309 330.363 326.982C298.529 352.041 258.787 366.123 217.549 366.955C216.175 366.985 214.796 367 213.412 367C180.523 367 139.158 350.216 101.619 326.982C98.5131 325.06 95.435 323.094 92.3845 321.082C90.9586 320.151 89.5397 319.206 88.1276 318.249C73.6493 308.481 59.9065 297.754 47.0006 286.147C38.5506 278.57 30.6267 270.475 23.2794 261.913C-5.56449 227.919 -11.9264 197.289 29.1954 190.993C34.0641 190.25 38.7893 189.455 43.3711 188.61C50.0079 187.391 56.3594 186.075 62.4258 184.662C70.5973 182.764 78.2745 180.707 85.4574 178.489C87.8736 177.746 90.2345 176.988 92.54 176.215C126.626 164.777 149.44 149.86 164.969 133.676C167.603 130.936 170.031 128.164 172.254 125.358C175.654 121.088 178.743 116.599 181.498 111.923C185.301 105.427 188.496 98.6217 191.044 91.5876L191.184 91.2012C203.54 57.148 199.78 25.5619 213.412 14.9903C271.68 -30.2042 344.223 34.157 378.273 110.056C379.989 113.88 381.603 117.728 383.115 121.598C383.794 123.327 384.45 125.06 385.08 126.795C386.74 131.318 388.245 135.852 389.596 140.398C390.115 142.132 390.609 143.865 391.079 145.595C391.582 147.463 392.064 149.325 392.51 151.188C395.824 164.826 397.623 178.276 397.623 190.993Z" fill="#F2F2F2"/>
<path d="M217.549 366.955C216.175 366.985 214.796 367 213.412 367C180.524 367 139.158 350.216 101.619 326.982C98.5131 325.06 95.435 323.093 92.3845 321.082L95.06 305.527L176.054 295.252L216.704 324.951L217.549 366.955Z" fill="#2F2E41"/>
<path d="M221.448 89.1948H209.907C209.549 89.195 209.206 89.3307 208.954 89.5722C208.701 89.8137 208.559 90.1412 208.559 90.4828V101.515C208.559 101.684 208.594 101.851 208.662 102.007C208.73 102.163 208.829 102.305 208.954 102.424C209.079 102.543 209.228 102.637 209.391 102.702C209.555 102.766 209.73 102.799 209.907 102.798H221.448C221.805 102.798 222.147 102.663 222.4 102.423C222.653 102.182 222.795 101.856 222.796 101.515V90.4828C222.795 90.1415 222.653 89.8144 222.4 89.5731C222.148 89.3318 221.806 89.1958 221.448 89.1948V89.1948Z" fill="white"/>
<path d="M221.448 107.995H209.907C209.549 107.995 209.206 108.131 208.954 108.372C208.701 108.614 208.559 108.941 208.559 109.283V120.315C208.559 120.484 208.594 120.651 208.662 120.807C208.73 120.963 208.829 121.105 208.954 121.224C209.079 121.343 209.228 121.437 209.391 121.502C209.555 121.566 209.73 121.599 209.907 121.598H221.448C221.805 121.598 222.147 121.463 222.4 121.223C222.653 120.982 222.795 120.656 222.796 120.315V109.283C222.795 108.942 222.653 108.615 222.4 108.373C222.148 108.132 221.806 107.996 221.448 107.995Z" fill="#E6E6E6"/>
<path d="M221.448 126.795H209.907C209.549 126.795 209.206 126.931 208.954 127.172C208.701 127.414 208.559 127.741 208.559 128.083V139.11C208.558 139.28 208.593 139.447 208.66 139.604C208.728 139.76 208.827 139.902 208.953 140.022C209.078 140.142 209.227 140.236 209.39 140.301C209.554 140.366 209.729 140.399 209.907 140.398H221.448C221.806 140.398 222.149 140.262 222.401 140.021C222.654 139.779 222.796 139.452 222.796 139.11V128.083C222.795 127.742 222.653 127.415 222.4 127.173C222.148 126.932 221.806 126.796 221.448 126.795V126.795Z" fill="#E6E6E6"/>
<path d="M222.776 146.655C222.718 146.358 222.554 146.09 222.312 145.897C222.07 145.703 221.764 145.596 221.448 145.595H209.907C209.549 145.595 209.206 145.731 208.954 145.972C208.701 146.214 208.559 146.541 208.559 146.883V157.91C208.558 158.08 208.593 158.247 208.66 158.404C208.728 158.56 208.827 158.702 208.953 158.822C209.078 158.942 209.227 159.036 209.39 159.101C209.554 159.166 209.729 159.199 209.907 159.198H221.448C221.806 159.198 222.149 159.063 222.401 158.821C222.654 158.579 222.796 158.252 222.796 157.91V146.883C222.798 146.807 222.791 146.73 222.776 146.655V146.655Z" fill="#E6E6E6"/>
<path d="M221.972 164.494C221.806 164.429 221.628 164.395 221.448 164.395H209.907C209.729 164.395 209.554 164.428 209.39 164.493C209.227 164.557 209.078 164.652 208.953 164.772C208.827 164.891 208.728 165.034 208.66 165.19C208.593 165.346 208.558 165.514 208.559 165.683V176.711C208.558 176.88 208.592 177.048 208.66 177.204C208.727 177.361 208.826 177.503 208.952 177.623C209.077 177.743 209.226 177.838 209.39 177.902C209.554 177.967 209.729 177.999 209.907 177.999H221.448C221.806 177.999 222.149 177.863 222.401 177.621C222.654 177.38 222.796 177.052 222.796 176.711V165.683C222.796 165.43 222.717 165.182 222.571 164.971C222.424 164.759 222.216 164.594 221.972 164.494Z" fill="#E6E6E6"/>
<path d="M245.693 89.1948H234.151C233.794 89.195 233.451 89.3307 233.198 89.5722C232.946 89.8137 232.804 90.1412 232.803 90.4828V101.515C232.804 101.684 232.839 101.851 232.907 102.007C232.974 102.163 233.074 102.305 233.199 102.424C233.324 102.543 233.473 102.637 233.636 102.702C233.8 102.766 233.975 102.799 234.151 102.798H245.693C246.05 102.798 246.392 102.663 246.645 102.423C246.897 102.182 247.04 101.856 247.041 101.515V90.4828C247.04 90.1415 246.898 89.8144 246.645 89.5731C246.393 89.3318 246.05 89.1958 245.693 89.1948V89.1948Z" fill="#E6E6E6"/>
<path d="M245.693 107.995H234.151C233.794 107.995 233.451 108.131 233.198 108.372C232.946 108.614 232.804 108.941 232.803 109.283V120.315C232.804 120.484 232.839 120.651 232.907 120.807C232.974 120.963 233.074 121.105 233.199 121.224C233.324 121.343 233.473 121.437 233.636 121.502C233.8 121.566 233.975 121.599 234.151 121.598H245.693C246.05 121.598 246.392 121.463 246.645 121.223C246.897 120.982 247.04 120.656 247.041 120.315V109.283C247.04 108.942 246.898 108.615 246.645 108.373C246.393 108.132 246.05 107.996 245.693 107.995Z" fill="#57679F"/>
<path d="M245.693 126.795H234.151C233.794 126.795 233.451 126.931 233.198 127.172C232.946 127.414 232.804 127.741 232.803 128.083V139.11C232.803 139.28 232.838 139.447 232.905 139.604C232.973 139.76 233.072 139.902 233.197 140.022C233.323 140.142 233.471 140.236 233.635 140.301C233.799 140.366 233.974 140.399 234.151 140.398H245.693C246.051 140.398 246.393 140.262 246.646 140.021C246.899 139.779 247.041 139.452 247.041 139.11V128.083C247.04 127.742 246.898 127.415 246.645 127.173C246.393 126.932 246.05 126.796 245.693 126.795V126.795Z" fill="#57679F"/>
<path d="M245.693 145.595H234.151C233.869 145.595 233.593 145.68 233.364 145.839C233.136 145.997 232.965 146.22 232.876 146.477C232.828 146.607 232.804 146.745 232.803 146.883V157.91C232.803 158.08 232.838 158.247 232.905 158.404C232.973 158.56 233.072 158.702 233.197 158.822C233.323 158.942 233.471 159.036 233.635 159.101C233.799 159.166 233.974 159.199 234.151 159.198H245.693C246.051 159.198 246.393 159.063 246.646 158.821C246.899 158.579 247.041 158.252 247.041 157.91V146.883C247.04 146.542 246.898 146.215 246.645 145.973C246.393 145.732 246.05 145.596 245.693 145.595V145.595Z" fill="#57679F"/>
<path d="M245.693 164.395H234.151C233.974 164.395 233.799 164.428 233.635 164.493C233.471 164.557 233.323 164.652 233.197 164.772C233.072 164.891 232.973 165.034 232.905 165.19C232.838 165.346 232.803 165.514 232.803 165.683V176.711C232.803 176.88 232.838 177.048 232.905 177.204C232.973 177.36 233.072 177.503 233.197 177.622C233.323 177.742 233.471 177.837 233.635 177.901C233.799 177.966 233.974 177.999 234.151 177.999H245.693C246.051 177.999 246.393 177.863 246.646 177.621C246.899 177.38 247.041 177.052 247.041 176.711V165.683C247.041 165.342 246.899 165.014 246.646 164.773C246.393 164.531 246.051 164.395 245.693 164.395V164.395Z" fill="#E6E6E6"/>
<path d="M269.938 89.1948H258.396C258.039 89.195 257.696 89.3307 257.443 89.5722C257.191 89.8137 257.048 90.1412 257.048 90.4828V101.515C257.049 101.684 257.084 101.851 257.151 102.007C257.219 102.163 257.319 102.305 257.444 102.424C257.569 102.543 257.718 102.637 257.881 102.702C258.045 102.766 258.22 102.799 258.396 102.798H269.938C270.295 102.798 270.637 102.663 270.89 102.423C271.142 102.182 271.285 101.856 271.286 101.515V90.4828C271.285 90.1415 271.143 89.8144 270.89 89.5731C270.638 89.3318 270.295 89.1958 269.938 89.1948V89.1948Z" fill="#57679F"/>
<path d="M269.938 107.995H258.396C258.039 107.995 257.696 108.131 257.443 108.372C257.191 108.614 257.048 108.941 257.048 109.283V120.315C257.049 120.484 257.084 120.651 257.151 120.807C257.219 120.963 257.319 121.105 257.444 121.224C257.569 121.343 257.718 121.437 257.881 121.502C258.045 121.566 258.22 121.599 258.396 121.598H269.938C270.295 121.598 270.637 121.463 270.89 121.223C271.142 120.982 271.285 120.656 271.286 120.315V109.283C271.285 108.942 271.143 108.615 270.89 108.373C270.638 108.132 270.295 107.996 269.938 107.995Z" fill="#57679F"/>
<path d="M269.938 126.795H258.396C258.039 126.795 257.696 126.931 257.443 127.172C257.191 127.414 257.048 127.741 257.048 128.083V139.11C257.048 139.28 257.083 139.447 257.15 139.604C257.218 139.76 257.317 139.902 257.442 140.022C257.568 140.142 257.716 140.236 257.88 140.301C258.044 140.366 258.219 140.399 258.396 140.398H269.938C270.296 140.398 270.638 140.262 270.891 140.021C271.144 139.779 271.286 139.452 271.286 139.11V128.083C271.285 127.742 271.143 127.415 270.89 127.173C270.638 126.932 270.295 126.796 269.938 126.795V126.795Z" fill="#E6E6E6"/>
<path d="M269.938 145.595H258.396C258.039 145.595 257.696 145.731 257.443 145.972C257.191 146.214 257.048 146.541 257.048 146.883V157.91C257.048 158.08 257.083 158.247 257.15 158.404C257.218 158.56 257.317 158.702 257.442 158.822C257.568 158.942 257.716 159.036 257.88 159.101C258.044 159.166 258.219 159.199 258.396 159.198H269.938C270.296 159.198 270.638 159.063 270.891 158.821C271.144 158.579 271.286 158.252 271.286 157.91V146.883C271.285 146.542 271.143 146.215 270.89 145.973C270.638 145.732 270.295 145.596 269.938 145.595V145.595Z" fill="#57679F"/>
<path d="M269.938 164.395H258.396C258.219 164.395 258.044 164.428 257.88 164.493C257.716 164.557 257.568 164.652 257.442 164.772C257.317 164.891 257.218 165.034 257.15 165.19C257.083 165.346 257.048 165.514 257.048 165.683V176.711C257.048 176.88 257.083 177.048 257.15 177.204C257.218 177.36 257.317 177.503 257.442 177.622C257.568 177.742 257.716 177.837 257.88 177.901C258.044 177.966 258.219 177.999 258.396 177.999H269.938C270.296 177.999 270.638 177.863 270.891 177.621C271.144 177.38 271.286 177.052 271.286 176.711V165.683C271.286 165.342 271.144 165.014 270.891 164.773C270.638 164.531 270.296 164.395 269.938 164.395V164.395Z" fill="#57679F"/>
<path d="M294.183 89.1948H282.641C282.284 89.195 281.941 89.3307 281.688 89.5722C281.435 89.8137 281.293 90.1412 281.293 90.4828V101.515C281.293 101.684 281.328 101.851 281.396 102.007C281.464 102.163 281.563 102.305 281.689 102.424C281.814 102.543 281.962 102.637 282.126 102.702C282.289 102.766 282.464 102.799 282.641 102.798H294.183C294.539 102.798 294.882 102.663 295.134 102.423C295.387 102.182 295.53 101.856 295.531 101.515V90.4828C295.53 90.1415 295.387 89.8144 295.135 89.5731C294.882 89.3318 294.54 89.1958 294.183 89.1948V89.1948Z" fill="#57679F"/>
<path d="M294.183 107.995H282.641C282.284 107.995 281.941 108.131 281.688 108.372C281.435 108.614 281.293 108.941 281.293 109.283V120.315C281.293 120.484 281.328 120.651 281.396 120.807C281.464 120.963 281.563 121.105 281.689 121.224C281.814 121.343 281.962 121.437 282.126 121.502C282.289 121.566 282.464 121.599 282.641 121.598H294.183C294.539 121.598 294.882 121.463 295.134 121.223C295.387 120.982 295.53 120.656 295.531 120.315V109.283C295.53 108.942 295.387 108.615 295.135 108.373C294.882 108.132 294.54 107.996 294.183 107.995V107.995Z" fill="white"/>
<path d="M294.183 126.795H282.641C282.284 126.795 281.941 126.931 281.688 127.172C281.435 127.414 281.293 127.741 281.293 128.083V139.11C281.293 139.28 281.327 139.447 281.395 139.604C281.462 139.76 281.562 139.902 281.687 140.022C281.812 140.142 281.961 140.236 282.125 140.301C282.288 140.366 282.464 140.399 282.641 140.398H294.183C294.54 140.398 294.883 140.262 295.136 140.021C295.389 139.779 295.531 139.452 295.531 139.11V128.083C295.53 127.742 295.387 127.415 295.135 127.173C294.882 126.932 294.54 126.796 294.183 126.795V126.795Z" fill="white"/>
<path d="M294.183 145.595H282.641C282.284 145.595 281.941 145.731 281.688 145.972C281.435 146.214 281.293 146.541 281.293 146.883V157.91C281.293 158.08 281.327 158.247 281.395 158.404C281.462 158.56 281.562 158.702 281.687 158.822C281.812 158.942 281.961 159.036 282.125 159.101C282.288 159.166 282.464 159.199 282.641 159.198H294.183C294.54 159.198 294.883 159.063 295.136 158.821C295.389 158.579 295.531 158.252 295.531 157.91V146.883C295.53 146.542 295.387 146.215 295.135 145.973C294.882 145.732 294.54 145.596 294.183 145.595V145.595Z" fill="#E6E6E6"/>
<path d="M294.183 164.395H282.641C282.464 164.395 282.288 164.428 282.125 164.493C281.961 164.557 281.812 164.652 281.687 164.772C281.562 164.891 281.462 165.034 281.395 165.19C281.327 165.346 281.293 165.514 281.293 165.683V176.711C281.293 176.88 281.327 177.048 281.395 177.204C281.462 177.36 281.562 177.503 281.687 177.622C281.812 177.742 281.961 177.837 282.125 177.901C282.288 177.966 282.464 177.999 282.641 177.999H294.183C294.54 177.999 294.883 177.863 295.136 177.621C295.389 177.38 295.531 177.052 295.531 176.711V165.683C295.531 165.342 295.389 165.014 295.136 164.773C294.883 164.531 294.54 164.395 294.183 164.395V164.395Z" fill="#57679F"/>
<path d="M318.428 89.1948H306.881C306.524 89.196 306.183 89.3322 305.931 89.5737C305.679 89.8151 305.538 90.142 305.538 90.4828V101.515C305.538 101.855 305.68 102.182 305.932 102.422C306.183 102.663 306.525 102.798 306.881 102.798H318.428C318.785 102.798 319.127 102.663 319.379 102.423C319.632 102.182 319.775 101.856 319.776 101.515V90.4828C319.775 90.1415 319.633 89.8144 319.38 89.5731C319.127 89.3318 318.785 89.1958 318.428 89.1948Z" fill="white"/>
<path d="M318.428 107.995H306.881C306.524 107.996 306.183 108.132 305.931 108.374C305.679 108.615 305.538 108.942 305.538 109.283V120.315C305.538 120.655 305.68 120.982 305.932 121.222C306.183 121.463 306.525 121.598 306.881 121.598H318.428C318.785 121.598 319.127 121.463 319.379 121.223C319.632 120.982 319.775 120.656 319.776 120.315V109.283C319.775 108.942 319.633 108.615 319.38 108.373C319.127 108.132 318.785 107.996 318.428 107.995V107.995Z" fill="white"/>
<path d="M318.428 126.795H306.881C306.524 126.796 306.183 126.932 305.931 127.174C305.679 127.415 305.538 127.742 305.538 128.083V139.11C305.538 139.279 305.572 139.447 305.639 139.603C305.706 139.759 305.805 139.901 305.93 140.02C306.055 140.14 306.203 140.235 306.366 140.3C306.529 140.365 306.704 140.398 306.881 140.398H318.428C318.785 140.398 319.128 140.262 319.381 140.021C319.634 139.779 319.776 139.452 319.776 139.11V128.083C319.775 127.742 319.633 127.415 319.38 127.173C319.127 126.932 318.785 126.796 318.428 126.795V126.795Z" fill="white"/>
<path d="M318.428 145.595H306.881C306.524 145.596 306.183 145.732 305.931 145.974C305.679 146.215 305.538 146.542 305.538 146.883V157.91C305.538 158.079 305.572 158.247 305.639 158.403C305.706 158.559 305.805 158.701 305.93 158.82C306.055 158.94 306.203 159.035 306.366 159.1C306.529 159.165 306.704 159.198 306.881 159.198H318.428C318.785 159.198 319.128 159.063 319.381 158.821C319.634 158.58 319.776 158.252 319.776 157.91V146.883C319.775 146.542 319.633 146.215 319.38 145.973C319.127 145.732 318.785 145.596 318.428 145.595V145.595Z" fill="#57679F"/>
<path d="M318.428 164.395H306.881C306.704 164.395 306.529 164.429 306.366 164.494C306.203 164.559 306.055 164.654 305.93 164.773C305.805 164.893 305.706 165.035 305.639 165.191C305.572 165.347 305.538 165.514 305.538 165.683V176.711C305.538 176.88 305.572 177.047 305.639 177.203C305.706 177.359 305.805 177.501 305.93 177.621C306.055 177.74 306.203 177.835 306.366 177.9C306.529 177.965 306.704 177.999 306.881 177.999H318.428C318.785 177.999 319.128 177.863 319.381 177.621C319.634 177.38 319.776 177.052 319.776 176.711V165.683C319.776 165.342 319.634 165.014 319.381 164.773C319.128 164.531 318.785 164.395 318.428 164.395V164.395Z" fill="#E6E6E6"/>
<path d="M342.673 89.1948H331.126C330.769 89.196 330.427 89.3322 330.176 89.5737C329.924 89.8151 329.783 90.142 329.783 90.4828V101.515C329.783 101.855 329.924 102.182 330.176 102.422C330.428 102.663 330.769 102.798 331.126 102.798H342.673C343.029 102.798 343.371 102.663 343.624 102.423C343.877 102.182 344.019 101.856 344.021 101.515V90.4828C344.02 90.1415 343.877 89.8145 343.625 89.5731C343.372 89.3318 343.03 89.1958 342.673 89.1948V89.1948Z" fill="white"/>
<path d="M342.673 107.995H331.126C330.769 107.996 330.427 108.132 330.176 108.374C329.924 108.615 329.783 108.942 329.783 109.283V120.315C329.783 120.655 329.924 120.982 330.176 121.222C330.428 121.463 330.769 121.598 331.126 121.598H342.673C343.029 121.598 343.371 121.463 343.624 121.223C343.877 120.982 344.019 120.656 344.021 120.315V109.283C344.02 108.942 343.877 108.615 343.625 108.373C343.372 108.132 343.03 107.996 342.673 107.995V107.995Z" fill="white"/>
<path d="M342.673 126.795H331.126C330.769 126.796 330.427 126.932 330.176 127.174C329.924 127.415 329.783 127.742 329.783 128.083V139.11C329.782 139.279 329.817 139.447 329.884 139.603C329.951 139.759 330.05 139.901 330.175 140.02C330.299 140.14 330.448 140.235 330.611 140.3C330.774 140.365 330.949 140.398 331.126 140.398H342.673C343.03 140.398 343.373 140.262 343.626 140.021C343.878 139.779 344.02 139.452 344.021 139.11V128.083C344.02 127.742 343.877 127.415 343.625 127.173C343.372 126.932 343.03 126.796 342.673 126.795V126.795Z" fill="#57679F"/>
<path d="M342.673 145.595H331.126C330.769 145.596 330.427 145.732 330.176 145.974C329.924 146.215 329.783 146.542 329.783 146.883V157.91C329.782 158.079 329.817 158.247 329.884 158.403C329.951 158.559 330.05 158.701 330.175 158.82C330.299 158.94 330.448 159.035 330.611 159.1C330.774 159.165 330.949 159.198 331.126 159.198H342.673C343.03 159.198 343.373 159.063 343.626 158.821C343.878 158.579 344.021 158.252 344.021 157.91V146.883C344.02 146.542 343.877 146.215 343.625 145.973C343.372 145.732 343.03 145.596 342.673 145.595V145.595Z" fill="#E6E6E6"/>
<path d="M342.673 164.395H331.126C330.949 164.395 330.774 164.429 330.611 164.494C330.448 164.559 330.299 164.654 330.175 164.773C330.05 164.893 329.951 165.035 329.884 165.191C329.817 165.347 329.782 165.514 329.783 165.683V176.711C329.782 176.88 329.817 177.047 329.884 177.203C329.951 177.359 330.05 177.501 330.175 177.621C330.299 177.74 330.448 177.835 330.611 177.9C330.774 177.965 330.949 177.999 331.126 177.999H342.673C343.03 177.999 343.373 177.863 343.626 177.621C343.878 177.38 344.021 177.052 344.021 176.711V165.683C344.021 165.342 343.878 165.014 343.626 164.773C343.373 164.531 343.03 164.395 342.673 164.395Z" fill="white"/>
<path d="M366.917 89.1948H355.37C355.014 89.196 354.672 89.3322 354.42 89.5737C354.169 89.8151 354.027 90.142 354.027 90.4828V101.515C354.027 101.855 354.169 102.182 354.421 102.422C354.673 102.663 355.014 102.798 355.37 102.798H366.917C367.274 102.798 367.616 102.663 367.869 102.423C368.121 102.182 368.264 101.856 368.265 101.515V90.4828C368.264 90.1415 368.122 89.8145 367.869 89.5731C367.617 89.3318 367.274 89.1958 366.917 89.1948V89.1948Z" fill="#57679F"/>
<path d="M366.917 107.995H355.37C355.014 107.996 354.672 108.132 354.42 108.374C354.168 108.615 354.027 108.942 354.027 109.283V120.315C354.027 120.655 354.169 120.982 354.421 121.222C354.673 121.463 355.014 121.598 355.37 121.598H366.917C367.274 121.598 367.616 121.463 367.869 121.223C368.121 120.982 368.264 120.656 368.265 120.315V109.283C368.264 108.942 368.122 108.615 367.869 108.373C367.617 108.132 367.274 107.996 366.917 107.995Z" fill="#57679F"/>
<path d="M366.917 126.795H355.37C355.014 126.796 354.672 126.932 354.42 127.174C354.168 127.415 354.027 127.742 354.027 128.083V139.11C354.027 139.279 354.061 139.447 354.128 139.603C354.196 139.759 354.295 139.901 354.419 140.02C354.544 140.14 354.692 140.235 354.855 140.3C355.019 140.365 355.194 140.398 355.37 140.398H366.917C367.275 140.398 367.617 140.262 367.87 140.021C368.123 139.779 368.265 139.452 368.265 139.11V128.083C368.264 127.742 368.122 127.415 367.869 127.173C367.617 126.932 367.274 126.796 366.917 126.795V126.795Z" fill="#E6E6E6"/>
<path d="M366.917 145.595H355.37C355.014 145.596 354.672 145.732 354.42 145.974C354.169 146.215 354.027 146.542 354.027 146.883V157.91C354.027 158.079 354.061 158.247 354.128 158.403C354.196 158.559 354.295 158.701 354.419 158.82C354.544 158.94 354.692 159.035 354.855 159.1C355.019 159.165 355.194 159.198 355.37 159.198H366.917C367.275 159.198 367.617 159.063 367.87 158.821C368.123 158.579 368.265 158.252 368.265 157.91V146.883C368.264 146.542 368.122 146.215 367.869 145.973C367.617 145.732 367.274 145.596 366.917 145.595V145.595Z" fill="white"/>
<path d="M366.917 164.395H355.37C355.194 164.395 355.019 164.429 354.855 164.494C354.692 164.559 354.544 164.654 354.419 164.773C354.295 164.893 354.196 165.035 354.128 165.191C354.061 165.347 354.027 165.514 354.027 165.683V176.711C354.027 176.88 354.061 177.047 354.128 177.203C354.196 177.359 354.295 177.501 354.419 177.621C354.544 177.74 354.692 177.835 354.855 177.9C355.019 177.965 355.194 177.999 355.37 177.999H366.917C367.275 177.999 367.617 177.863 367.87 177.621C368.123 177.38 368.265 177.052 368.265 176.711V165.683C368.265 165.342 368.123 165.014 367.87 164.773C367.617 164.531 367.275 164.395 366.917 164.395Z" fill="#57679F"/>
<path d="M391.162 89.1948H379.615C379.259 89.196 378.917 89.3322 378.665 89.5737C378.414 89.8151 378.272 90.142 378.272 90.4828V101.515C378.273 101.855 378.414 102.182 378.666 102.422C378.918 102.663 379.259 102.798 379.615 102.798H391.162C391.519 102.798 391.861 102.663 392.114 102.423C392.367 102.182 392.509 101.856 392.51 101.515V90.4828C392.509 90.1415 392.367 89.8145 392.114 89.5731C391.862 89.3318 391.519 89.1958 391.162 89.1948Z" fill="#57679F"/>
<path d="M391.162 107.995H379.615C379.259 107.996 378.917 108.132 378.665 108.374C378.414 108.615 378.272 108.942 378.272 109.283V120.315C378.273 120.655 378.414 120.982 378.666 121.222C378.918 121.463 379.259 121.598 379.615 121.598H391.162C391.519 121.598 391.861 121.463 392.114 121.223C392.367 120.982 392.509 120.656 392.51 120.315V109.283C392.509 108.942 392.367 108.615 392.114 108.373C391.862 108.132 391.519 107.996 391.162 107.995V107.995Z" fill="#57679F"/>
<path d="M391.162 126.795H379.615C379.259 126.796 378.917 126.932 378.665 127.174C378.414 127.415 378.272 127.742 378.272 128.083V139.11C378.272 139.279 378.306 139.447 378.374 139.603C378.441 139.759 378.54 139.901 378.664 140.02C378.789 140.14 378.937 140.235 379.1 140.3C379.264 140.365 379.439 140.398 379.615 140.398H391.162C391.52 140.398 391.863 140.262 392.115 140.021C392.368 139.779 392.51 139.452 392.51 139.11V128.083C392.509 127.742 392.367 127.415 392.114 127.173C391.862 126.932 391.519 126.796 391.162 126.795Z" fill="#E6E6E6"/>
<path d="M391.162 145.595H379.615C379.259 145.596 378.917 145.732 378.665 145.974C378.414 146.215 378.272 146.542 378.272 146.883V157.91C378.272 158.079 378.306 158.247 378.374 158.403C378.441 158.559 378.54 158.701 378.664 158.82C378.789 158.94 378.937 159.035 379.1 159.1C379.264 159.165 379.439 159.198 379.615 159.198H391.162C391.52 159.198 391.863 159.063 392.115 158.821C392.368 158.579 392.51 158.252 392.51 157.91V146.883C392.509 146.542 392.367 146.215 392.114 145.973C391.862 145.732 391.519 145.596 391.162 145.595V145.595Z" fill="#57679F"/>
<path d="M391.162 164.395H379.615C379.439 164.395 379.264 164.429 379.1 164.494C378.937 164.559 378.789 164.654 378.664 164.773C378.54 164.893 378.441 165.035 378.374 165.191C378.306 165.347 378.272 165.514 378.272 165.683V176.711C378.272 176.88 378.306 177.047 378.374 177.203C378.441 177.359 378.54 177.501 378.664 177.621C378.789 177.74 378.937 177.835 379.1 177.9C379.264 177.965 379.439 177.999 379.615 177.999H391.162C391.52 177.999 391.863 177.863 392.115 177.621C392.368 177.38 392.51 177.052 392.51 176.711V165.683C392.51 165.342 392.368 165.014 392.115 164.773C391.863 164.531 391.52 164.395 391.162 164.395V164.395Z" fill="#57679F"/>
<path d="M415.407 89.1948H403.86C403.503 89.196 403.162 89.3322 402.91 89.5737C402.658 89.8151 402.517 90.142 402.517 90.4828V101.515C402.517 101.855 402.659 102.182 402.91 102.422C403.162 102.663 403.504 102.798 403.86 102.798H415.407C415.764 102.798 416.106 102.663 416.358 102.423C416.611 102.182 416.754 101.856 416.755 101.515V90.4828C416.754 90.1415 416.612 89.8145 416.359 89.5731C416.106 89.3318 415.764 89.1958 415.407 89.1948V89.1948Z" fill="#E6E6E6"/>
<path d="M415.407 107.995H403.86C403.503 107.996 403.162 108.132 402.91 108.374C402.658 108.615 402.517 108.942 402.517 109.283V120.315C402.517 120.655 402.659 120.982 402.91 121.222C403.162 121.463 403.504 121.598 403.86 121.598H415.407C415.764 121.598 416.106 121.463 416.358 121.223C416.611 120.982 416.754 120.656 416.755 120.315V109.283C416.754 108.942 416.612 108.615 416.359 108.373C416.106 108.132 415.764 107.996 415.407 107.995V107.995Z" fill="#57679F"/>
<path d="M415.407 126.795H403.86C403.503 126.796 403.162 126.932 402.91 127.174C402.658 127.415 402.517 127.742 402.517 128.083V139.11C402.517 139.279 402.551 139.447 402.618 139.603C402.685 139.759 402.784 139.901 402.909 140.02C403.034 140.14 403.182 140.235 403.345 140.3C403.508 140.365 403.683 140.398 403.86 140.398H415.407C415.764 140.398 416.107 140.262 416.36 140.021C416.613 139.779 416.755 139.452 416.755 139.11V128.083C416.754 127.742 416.612 127.415 416.359 127.173C416.106 126.932 415.764 126.796 415.407 126.795V126.795Z" fill="#57679F"/>
<path d="M415.407 145.595H403.86C403.503 145.596 403.162 145.732 402.91 145.974C402.658 146.215 402.517 146.542 402.517 146.883V157.91C402.517 158.079 402.551 158.247 402.618 158.403C402.685 158.559 402.784 158.701 402.909 158.82C403.034 158.94 403.182 159.035 403.345 159.1C403.508 159.165 403.683 159.198 403.86 159.198H415.407C415.764 159.198 416.107 159.063 416.36 158.821C416.613 158.579 416.755 158.252 416.755 157.91V146.883C416.754 146.542 416.612 146.215 416.359 145.973C416.106 145.732 415.764 145.596 415.407 145.595V145.595Z" fill="#57679F"/>
<path d="M415.407 164.395H403.86C403.683 164.395 403.508 164.429 403.345 164.494C403.182 164.559 403.034 164.654 402.909 164.773C402.784 164.893 402.685 165.035 402.618 165.191C402.551 165.347 402.517 165.514 402.517 165.683V176.711C402.517 176.88 402.551 177.047 402.618 177.203C402.685 177.359 402.784 177.501 402.909 177.621C403.034 177.74 403.182 177.835 403.345 177.9C403.508 177.965 403.683 177.999 403.86 177.999H415.407C415.764 177.999 416.107 177.863 416.36 177.621C416.613 177.38 416.755 177.052 416.755 176.711V165.683C416.755 165.342 416.613 165.014 416.36 164.773C416.107 164.531 415.764 164.395 415.407 164.395V164.395Z" fill="#E6E6E6"/>
<path d="M439.652 89.1948H428.105C427.748 89.196 427.407 89.3322 427.155 89.5737C426.903 89.8151 426.762 90.142 426.762 90.4828V101.515C426.762 101.855 426.904 102.182 427.156 102.422C427.407 102.663 427.749 102.798 428.105 102.798H439.652C440.009 102.798 440.351 102.663 440.604 102.423C440.856 102.182 440.999 101.856 441 101.515V90.4828C440.999 90.1415 440.857 89.8145 440.604 89.5731C440.352 89.3318 440.009 89.1958 439.652 89.1948V89.1948Z" fill="#E6E6E6"/>
<path d="M439.652 107.995H428.105C427.748 107.996 427.407 108.132 427.155 108.374C426.903 108.615 426.762 108.942 426.762 109.283V120.315C426.762 120.656 426.904 120.982 427.156 121.222C427.407 121.463 427.749 121.598 428.105 121.598H439.652C440.009 121.598 440.351 121.463 440.604 121.223C440.856 120.982 440.999 120.656 441 120.315V109.283C440.999 108.942 440.857 108.615 440.604 108.373C440.352 108.132 440.009 107.996 439.652 107.995V107.995Z" fill="#E6E6E6"/>
<path d="M439.652 126.795H428.105C427.748 126.796 427.407 126.932 427.155 127.174C426.903 127.415 426.762 127.742 426.762 128.083V139.11C426.762 139.279 426.796 139.447 426.863 139.603C426.931 139.759 427.029 139.901 427.154 140.02C427.279 140.14 427.427 140.235 427.59 140.3C427.753 140.365 427.928 140.398 428.105 140.398H439.652C440.01 140.398 440.352 140.262 440.605 140.021C440.858 139.779 441 139.452 441 139.11V128.083C440.999 127.742 440.857 127.415 440.604 127.173C440.352 126.932 440.009 126.796 439.652 126.795V126.795Z" fill="#57679F"/>
<path d="M439.652 145.595H428.105C427.748 145.596 427.407 145.732 427.155 145.974C426.903 146.215 426.762 146.542 426.762 146.883V157.91C426.762 158.079 426.796 158.247 426.863 158.403C426.931 158.559 427.029 158.701 427.154 158.82C427.279 158.94 427.427 159.035 427.59 159.1C427.753 159.165 427.928 159.198 428.105 159.198H439.652C440.01 159.198 440.352 159.063 440.605 158.821C440.858 158.579 441 158.252 441 157.91V146.883C440.999 146.542 440.857 146.215 440.604 145.973C440.352 145.732 440.009 145.596 439.652 145.595V145.595Z" fill="#E6E6E6"/>
<path d="M439.652 164.395H428.105C427.928 164.395 427.753 164.429 427.59 164.494C427.427 164.559 427.279 164.654 427.154 164.773C427.029 164.893 426.931 165.035 426.863 165.191C426.796 165.347 426.762 165.514 426.762 165.683V176.711C426.762 176.88 426.796 177.047 426.863 177.203C426.931 177.359 427.029 177.501 427.154 177.621C427.279 177.74 427.427 177.835 427.59 177.9C427.753 177.965 427.928 177.999 428.105 177.999H439.652C440.01 177.999 440.352 177.863 440.605 177.621C440.858 177.38 441 177.052 441 176.711V165.683C441 165.342 440.858 165.014 440.605 164.773C440.352 164.531 440.01 164.395 439.652 164.395V164.395Z" fill="#E6E6E6"/>
<path d="M174.264 326.983H173.942L174.217 326.948L174.264 326.983Z" fill="#2F2E41"/>
<path d="M146.638 121.398C166.202 121.398 182.062 106.244 182.062 87.5518C182.062 68.8592 166.202 53.7058 146.638 53.7058C127.074 53.7058 111.213 68.8592 111.213 87.5518C111.213 106.244 127.074 121.398 146.638 121.398Z" fill="#FFB6B6"/>
<path d="M177.66 62.7365C177.66 62.7365 186.925 45.8135 166.542 44.2751C166.542 44.2751 149.164 29.214 131.452 41.5217C131.452 41.5217 121.791 41.5217 116.508 51.9673C116.508 51.9673 108.909 49.2139 107.239 56.5827C107.239 56.5827 101.679 71.9673 107.239 85.8134C112.8 99.6595 114.646 101.198 114.646 101.198C114.646 101.198 105.51 72.1688 127.749 70.6303C149.987 69.0918 174.873 55.8135 176.726 72.7365C178.58 89.6594 181.369 93.8291 181.369 93.8291C181.369 93.8291 198.971 69.6596 177.66 62.7365Z" fill="#2F2E41"/>
<path d="M238.274 170.964L238.16 171.539L236.879 177.998L228.028 222.683L227.504 225.313L226.405 230.876L224.902 238.466L221.568 255.284L220.614 260.105L220.256 261.913L220.131 262.547L219.141 267.535L218.84 269.041L216.424 286.147L214.314 301.053L221.376 307.801L217.166 311.823L214.402 326.948L214.407 326.982H101.619C97.0562 324.159 92.5592 321.247 88.1278 318.248L89.0559 311.61C89.0559 311.61 92.2498 299.756 90.9068 298.339C89.5692 296.922 86.6344 294.391 86.6344 294.391L90.3314 286.147L90.8447 285.003L89.984 267.947L89.9633 267.535L89.6781 261.913L89.6418 261.189L89.5847 260.105L88.4907 238.466L88.47 238.109L88.1382 231.55L87.827 225.313L87.6922 222.683L86.3597 196.363L85.4575 178.489L84.6694 162.929L87.8374 161.903L121.721 150.901L135.757 133.468L164.969 133.676L179.269 133.78L203.13 154.923L208.559 157.4L208.6 157.42L212.494 159.198L222.366 163.701L232.804 168.467L238.16 170.909L238.274 170.964Z" fill="#CACACA"/>
<path d="M139.532 276.205C137.391 276.998 135.095 277.332 132.804 277.185C130.514 277.037 128.285 276.412 126.275 275.353C124.265 274.293 122.522 272.826 121.17 271.053C119.817 269.281 118.888 267.246 118.448 265.094L63.1975 257.605L82.404 236.847L131.926 247.141C135.76 246.674 139.64 247.566 142.831 249.65C146.023 251.733 148.303 254.863 149.241 258.446C150.178 262.028 149.708 265.815 147.918 269.088C146.129 272.361 143.145 274.894 139.532 276.205V276.205Z" fill="#FFB6B6"/>
<path d="M114.897 238.466C113.874 237.226 112.425 236.372 110.807 236.053L88.1379 231.55L85.8099 231.09C84.4569 230.82 83.1789 230.28 82.0593 229.506C80.9397 228.732 80.0039 227.74 79.3131 226.596C78.5965 225.396 78.163 224.06 78.0428 222.683C77.9347 221.431 78.0917 220.17 78.5042 218.977L86.3594 196.363L91.4562 181.689C92.0739 179.92 92.4385 178.078 92.5399 176.215C92.8239 171.06 91.1544 165.979 87.8371 161.903C84.9208 158.321 80.8758 155.73 76.2998 154.514C71.7239 153.297 66.8596 153.519 62.4257 155.146C62.2961 155.191 62.1612 155.24 62.0316 155.29C58.8518 156.503 56.0109 158.406 53.7333 160.849C51.4558 163.291 49.804 166.206 48.9085 169.364L43.371 188.61L31.9485 228.286C30.8051 232.261 30.5741 236.425 31.2713 240.494C31.9686 244.562 33.5776 248.438 35.9883 251.857C38.399 255.277 41.5544 258.158 45.2386 260.304C48.9227 262.45 53.0487 263.81 57.3341 264.291L89.9837 267.947L105.093 269.641C106.84 269.842 108.602 269.406 110.028 268.421C111.454 267.436 112.439 265.973 112.787 264.325C112.812 264.236 112.831 264.145 112.844 264.053L113.207 261.913L116.282 243.891L116.313 243.707C116.473 242.788 116.43 241.846 116.186 240.943C115.942 240.041 115.503 239.197 114.897 238.466Z" fill="#CACACA"/>
<path d="M174.724 276.783C176.96 277.279 179.283 277.301 181.529 276.846C183.775 276.392 185.889 275.472 187.723 274.153C189.556 272.833 191.065 271.145 192.142 269.208C193.219 267.271 193.839 265.132 193.957 262.942L247.55 248.083L225.472 230.121L177.964 246.984C174.099 247.038 170.39 248.445 167.538 250.937C164.686 253.43 162.89 256.836 162.491 260.509C162.091 264.182 163.116 267.867 165.371 270.867C167.625 273.866 170.953 275.971 174.724 276.783V276.783Z" fill="#FFB6B6"/>
<path d="M274.159 214.846L248.669 158.797C246.584 154.196 242.861 150.449 238.159 148.221C236.706 147.537 235.18 147.006 233.607 146.635C233.363 146.576 233.12 146.522 232.876 146.477C229.541 145.782 226.082 145.843 222.776 146.655C219.754 147.397 216.929 148.739 214.487 150.594C212.044 152.449 210.038 154.775 208.6 157.42C208.584 157.442 208.57 157.465 208.559 157.489C206.952 160.459 206.097 163.748 206.064 167.091C206.031 170.433 206.819 173.737 208.367 176.735L208.683 177.34L226.695 211.903C227.311 213.085 227.657 214.378 227.712 215.697C227.768 217.016 227.531 218.331 227.017 219.556C226.502 220.781 225.723 221.889 224.729 222.806C223.736 223.723 222.551 224.429 221.251 224.877L219.986 225.313L197.235 233.165C195.527 233.747 194.123 234.94 193.318 236.491C192.512 238.042 192.368 239.832 192.915 241.483L192.973 241.656L199.35 261.155C199.381 261.244 199.412 261.333 199.449 261.422C199.505 261.591 199.574 261.755 199.656 261.913C200.334 263.365 201.532 264.539 203.034 265.223C204.537 265.907 206.246 266.056 207.853 265.643L220.131 262.547L222.636 261.913L254.342 253.912C258.513 252.859 262.398 250.957 265.729 248.336C269.06 245.715 271.759 242.437 273.641 238.727C275.523 235.017 276.543 230.963 276.633 226.841C276.722 222.719 275.878 218.627 274.159 214.846L274.159 214.846Z" fill="#CACACA"/>
<path d="M23.2793 261.913C30.6266 270.475 38.5505 278.57 47.0005 286.147H281.345C283.603 286.151 285.767 287.01 287.363 288.535C288.959 290.061 289.856 292.129 289.858 294.287L290.196 351.024C304.612 344.695 318.113 336.615 330.363 326.982C333.765 324.312 337.061 321.527 340.251 318.625C342.341 316.733 344.38 314.794 346.369 312.809C361.283 297.965 373.36 280.739 382.052 261.913H23.2793Z" fill="#3F3D56"/>
<path d="M346.369 312.809C344.384 314.796 342.344 316.734 340.251 318.625H290.367V312.809H346.369Z" fill="white"/>
<path d="M237.807 126.795C237.56 126.36 237.196 125.998 236.751 125.745C236.307 125.492 235.799 125.358 235.282 125.358H65.2983C64.5361 125.36 63.8059 125.651 63.2675 126.166C62.7291 126.681 62.4264 127.38 62.4258 128.108V225.313H238.159V128.108C238.162 127.648 238.041 127.196 237.807 126.795V126.795Z" fill="#3F3D56"/>
<path d="M62.272 222.682V234.677C62.272 235.174 62.3745 235.667 62.5737 236.126C62.7728 236.585 63.0648 237.003 63.4328 237.355C63.8008 237.706 64.2377 237.985 64.7186 238.175C65.1994 238.366 65.7148 238.464 66.2353 238.464H131.097V262.137H130.236C130.168 262.137 130.101 262.149 130.039 262.174C129.976 262.199 129.919 262.235 129.872 262.281C129.824 262.326 129.786 262.381 129.76 262.44C129.734 262.5 129.721 262.564 129.721 262.629V264.275C129.721 264.34 129.734 264.404 129.76 264.463C129.786 264.523 129.824 264.577 129.872 264.623C129.919 264.669 129.976 264.705 130.039 264.73C130.101 264.754 130.168 264.767 130.236 264.767H170.501C170.569 264.767 170.636 264.754 170.698 264.73C170.761 264.705 170.817 264.669 170.865 264.623C170.913 264.577 170.951 264.523 170.977 264.463C171.003 264.404 171.016 264.34 171.016 264.275V262.629C171.016 262.564 171.003 262.5 170.977 262.44C170.951 262.381 170.913 262.326 170.865 262.281C170.817 262.235 170.761 262.199 170.698 262.174C170.636 262.149 170.569 262.137 170.501 262.137H169.64V238.464H234.502C235.022 238.464 235.537 238.366 236.018 238.175C236.499 237.985 236.936 237.706 237.304 237.355C237.672 237.003 237.964 236.585 238.163 236.126C238.362 235.667 238.465 235.174 238.465 234.677V222.682H62.272Z" fill="#3F3D56"/>
<path d="M148.239 188.253C157.204 188.253 164.472 181.31 164.472 172.745C164.472 164.179 157.204 157.236 148.239 157.236C139.274 157.236 132.007 164.179 132.007 172.745C132.007 181.31 139.274 188.253 148.239 188.253Z" fill="#57679F"/>
<path d="M189.597 85.7023H187.005C187.005 66.9765 167.608 54.7057 148.04 54.6958C145.194 54.6878 142.354 54.9517 139.562 55.4834C136.42 56.0828 133.159 56.8012 129.955 57.7375C117.319 61.438 105.601 68.5915 105.601 85.7023C105.598 89.0253 106.041 92.335 106.918 95.5506L104.408 96.1748C103.478 92.755 103.007 89.2358 103.009 85.7023C103.009 70.7514 109.433 60.4819 120.529 54.3589C126.362 51.1388 133.481 49.0632 141.636 48.0526C145.03 47.6212 148.462 47.5216 151.877 47.7553C174.379 49.3009 189.597 65.7875 189.597 85.7023Z" fill="#57679F"/>
<path d="M193.916 87.0745L192.895 79.8616C192.643 78.0401 191.725 76.3625 190.302 75.1257C189.389 74.3194 188.296 73.7221 187.106 73.3788C185.916 73.0355 184.66 72.9552 183.432 73.1441L181.809 73.3571C181.365 73.413 180.937 73.5525 180.55 73.7677C180.163 73.9828 179.824 74.2693 179.554 74.6105C179.281 74.9505 179.082 75.3388 178.967 75.7528C178.852 76.1669 178.824 76.5986 178.885 77.023L181.244 93.6384C181.341 94.3156 181.659 94.9465 182.152 95.4417C182.645 95.9369 183.289 96.2714 183.992 96.3978C184.201 96.4376 184.412 96.4575 184.625 96.4572C184.777 96.4572 184.93 96.4472 185.081 96.4275L186.896 96.1946C188.002 96.0544 189.067 95.6994 190.025 95.1517C190.982 94.6039 191.813 93.8748 192.464 93.0093C192.604 92.821 192.739 92.6278 192.864 92.4297C193.836 90.8087 194.206 88.9219 193.916 87.0745Z" fill="#57679F"/>
<path d="M180.762 73.6594C180.286 73.8804 179.872 74.2064 179.554 74.6106C179.281 74.9506 179.082 75.3388 178.967 75.7529C178.852 76.167 178.824 76.5987 178.885 77.0231L181.244 93.6385C181.341 94.3157 181.659 94.9466 182.152 95.4418C182.645 95.937 183.289 96.2715 183.992 96.3979L180.762 73.6594Z" fill="white"/>
<path d="M193.916 87.0746L192.895 79.8617C192.643 78.0401 191.724 76.3625 190.302 75.1257L192.651 91.6569C192.686 91.9223 192.758 92.1821 192.864 92.4297C193.835 90.8088 194.206 88.9219 193.916 87.0746V87.0746Z" fill="#3F3D56"/>
<path d="M185.844 92.2715C186.553 92.1795 186.91 90.5665 186.64 88.6687C186.371 86.7709 185.577 85.307 184.868 85.3989C184.158 85.4909 183.802 87.1039 184.071 89.0017C184.341 90.8995 185.134 92.3634 185.844 92.2715Z" fill="#3F3D56"/>
<path d="M184.288 83.3545C184.997 83.2625 185.354 81.6495 185.084 79.7517C184.815 77.8539 184.021 76.39 183.312 76.482C182.603 76.5739 182.246 78.1869 182.515 80.0847C182.785 81.9825 183.578 83.4464 184.288 83.3545Z" fill="#3F3D56"/>
<path d="M194.139 86.8222C194.849 86.7303 195.205 85.1173 194.936 83.2195C194.667 81.3217 193.873 79.8578 193.164 79.9497C192.454 80.0417 192.098 81.6547 192.367 83.5525C192.637 85.4503 193.43 86.9142 194.139 86.8222Z" fill="#3F3D56"/>
<path d="M148.04 54.6958C145.193 54.6878 142.354 54.9517 139.562 55.4834C136.42 56.0828 133.159 56.8012 129.955 57.7375C124.951 57.5046 121.27 56.2661 120.528 54.3589C126.361 51.1388 133.48 49.0632 141.636 48.0526C145.03 47.6212 148.461 47.5216 151.877 47.7553C152.238 47.9578 152.551 48.2311 152.794 48.5573C153.037 48.8835 153.205 49.2551 153.287 49.6477C153.531 51.3717 151.472 53.2046 148.04 54.6958Z" fill="#3F3D56"/>
<path d="M114.939 102.892L110.947 87.0349C110.804 86.4628 110.488 85.9436 110.038 85.5426C109.588 85.1415 109.024 84.8765 108.416 84.7808C108.245 84.7553 108.072 84.7421 107.898 84.7412C107.653 84.742 107.41 84.7703 107.172 84.8254L105.627 85.1821C103.638 85.6418 101.92 86.8368 100.852 88.5048C99.7837 90.1728 99.4516 92.1776 99.9287 94.0793L101.717 101.193C102.126 102.868 103.099 104.368 104.486 105.463C104.711 105.637 104.947 105.797 105.191 105.944C106.061 106.464 107.03 106.813 108.042 106.97C109.055 107.126 110.09 107.087 111.087 106.855L112.627 106.499C113.034 106.408 113.417 106.238 113.752 105.998C114.25 105.652 114.628 105.171 114.84 104.618C115.051 104.065 115.086 103.464 114.939 102.892Z" fill="#57679F"/>
<path d="M106.569 99.942C107.265 99.782 107.45 98.1428 106.981 96.2807C106.512 94.4187 105.567 93.039 104.871 93.199C104.175 93.359 103.991 94.9982 104.46 96.8603C104.929 98.7223 105.873 100.102 106.569 99.942Z" fill="#3F3D56"/>
<path d="M101.384 101.428C102.08 101.268 102.264 99.6288 101.795 97.7668C101.326 95.9048 100.382 94.5251 99.686 94.6851C98.99 94.8451 98.806 96.4843 99.2749 98.3463C99.7439 100.208 100.688 101.588 101.384 101.428Z" fill="#3F3D56"/>
<path d="M115.193 102.833L111.201 86.9754C111.045 86.3564 110.702 85.795 110.214 85.3615C109.726 84.9279 109.115 84.6415 108.458 84.5381L113.907 106.197C114.445 105.82 114.855 105.3 115.084 104.701C115.312 104.102 115.35 103.452 115.193 102.833V102.833Z" fill="white"/>
<path d="M100.831 90.9386C100.721 90.4976 100.514 90.0839 100.224 89.7249C99.663 91.1135 99.5599 92.633 99.9287 94.0793L101.717 101.193C102.126 102.868 103.099 104.368 104.486 105.463L100.831 90.9386Z" fill="#3F3D56"/>
</g>
<defs>
<clipPath id="clip0_358_331">
<rect width="441" height="367" fill="white"/>
</clipPath>
</defs>
</svg>
