<svg width="27" height="27" viewBox="0 0 27 27" fill="none" xmlns="http://www.w3.org/2000/svg">
<path d="M19.8776 20.5515C19.1476 20.5606 18.4225 20.4319 17.7401 20.1724C17.1288 19.9346 16.5764 19.5669 16.1212 19.0946C15.6728 18.612 15.3265 18.0437 15.1031 17.424C14.8578 16.7384 14.7363 16.0146 14.7442 15.2865C14.739 14.5709 14.8641 13.8603 15.1133 13.1895C15.3456 12.5639 15.7031 11.9924 16.164 11.5099C16.6262 11.0333 17.1784 10.6532 17.7885 10.3916C18.4494 10.112 19.1612 9.97295 19.8788 9.98323C20.6499 9.96675 21.4136 10.1366 22.1051 10.4782C22.7224 10.7948 23.2577 11.2504 23.6689 11.8091C24.0837 12.3798 24.3829 13.026 24.5498 13.7115C24.7318 14.4402 24.7967 15.1932 24.7421 15.9424H17.5073C17.4785 16.6539 17.7223 17.3496 18.189 17.8875C18.6793 18.3175 19.3202 18.5352 19.971 18.4927C20.4821 18.5047 20.9843 18.3581 21.4088 18.0731C21.7457 17.8674 22.0043 17.555 22.1434 17.1855H24.5677C24.293 18.2303 23.6609 19.1458 22.7812 19.773C21.9106 20.3115 20.9009 20.5822 19.8776 20.5515ZM19.8 12.0645C19.422 12.0503 19.0461 12.1275 18.7043 12.2895C18.4369 12.4243 18.1997 12.6118 18.0068 12.8407C17.837 13.0487 17.7115 13.2891 17.6378 13.5472C17.5728 13.7623 17.5309 13.9837 17.5129 14.2076H21.9926C21.9603 13.6242 21.7379 13.0675 21.3593 12.6225C20.9402 12.2269 20.3749 12.0246 19.8 12.0645ZM8.96625 20.2905H2.25V6.44735H8.775C9.37946 6.44206 9.9828 6.50051 10.575 6.62173C11.0766 6.71965 11.5545 6.91372 11.9824 7.19323C12.3688 7.46146 12.6789 7.82547 12.8824 8.2496C13.107 8.76051 13.2146 9.31514 13.1974 9.87298C13.2217 10.4902 13.0582 11.1002 12.7283 11.6224C12.3672 12.1208 11.8793 12.5135 11.3152 12.7597C12.0817 12.9513 12.7554 13.4085 13.2165 14.0501C13.6448 14.7103 13.8614 15.4854 13.8375 16.272C13.8538 16.9011 13.7155 17.5245 13.4348 18.0877C13.1757 18.5872 12.7997 19.0168 12.339 19.3399C11.8613 19.6722 11.3279 19.9161 10.764 20.0599C10.1754 20.2144 9.56922 20.2923 8.96063 20.2916L8.96625 20.2905ZM5.29875 14.1221V17.9359H8.55C8.83734 17.9389 9.12412 17.9099 9.405 17.8492C9.66214 17.7996 9.90687 17.6994 10.125 17.5545C10.3351 17.4163 10.5056 17.226 10.62 17.0021C10.7526 16.7213 10.8152 16.4124 10.8023 16.1021C10.8568 15.5262 10.6337 14.9588 10.2015 14.5744C9.73523 14.2534 9.17607 14.0952 8.61075 14.1244L5.29875 14.1221ZM5.29875 8.80648V12.0409H8.3835C8.86068 12.0596 9.33112 11.9235 9.7245 11.6527C10.0953 11.3448 10.2906 10.8739 10.2465 10.3939C10.256 10.1183 10.1973 9.8447 10.0755 9.59735C9.96553 9.3974 9.8034 9.23099 9.60638 9.11585C9.39891 8.99282 9.16977 8.91071 8.93138 8.87398C8.67176 8.8253 8.40799 8.80232 8.14387 8.80535L5.29875 8.80648ZM22.5574 8.74348H16.9436V7.3766H22.5574V8.74235V8.74348Z" fill="white"/>
</svg>
