<svg width="30" height="30" viewBox="0 0 30 30" fill="none" xmlns="http://www.w3.org/2000/svg">
<path d="M22.0863 22.835C21.2751 22.8451 20.4694 22.7022 19.7113 22.4138C19.032 22.1496 18.4182 21.741 17.9125 21.2163C17.4143 20.68 17.0295 20.0486 16.7812 19.36C16.5086 18.5982 16.3736 17.7941 16.3825 16.985C16.3767 16.1899 16.5156 15.4004 16.7925 14.655C17.0506 13.96 17.4479 13.3249 17.96 12.7888C18.4735 12.2593 19.0871 11.8369 19.765 11.5463C20.4993 11.2356 21.2902 11.0811 22.0875 11.0925C22.9443 11.0742 23.7929 11.2629 24.5613 11.6425C25.2471 11.9943 25.8419 12.5005 26.2987 13.1213C26.7596 13.7553 27.0921 14.4734 27.2775 15.235C27.4798 16.0447 27.5519 16.8814 27.4912 17.7138H19.4525C19.4205 18.5044 19.6915 19.2774 20.21 19.875C20.7547 20.3528 21.4669 20.5947 22.19 20.5475C22.7579 20.5608 23.3159 20.3979 23.7875 20.0813C24.1619 19.8527 24.4492 19.5056 24.6038 19.095H27.2975C26.9922 20.2559 26.2899 21.2731 25.3125 21.97C24.3451 22.5683 23.2232 22.8691 22.0863 22.835ZM22 13.405C21.58 13.3892 21.1623 13.475 20.7825 13.655C20.4855 13.8048 20.2219 14.0131 20.0075 14.2675C19.8189 14.4986 19.6794 14.7657 19.5975 15.0525C19.5253 15.2915 19.4788 15.5374 19.4587 15.7863H24.4362C24.4004 15.1381 24.1532 14.5194 23.7325 14.025C23.2669 13.5855 22.6387 13.3607 22 13.405ZM9.9625 22.545H2.5V7.16376H9.75C10.4216 7.15788 11.092 7.22282 11.75 7.35751C12.3073 7.46631 12.8383 7.68194 13.3138 7.99251C13.7431 8.29055 14.0877 8.695 14.3138 9.16626C14.5633 9.73393 14.6829 10.3502 14.6637 10.97C14.6908 11.6558 14.5091 12.3336 14.1425 12.9138C13.7414 13.4676 13.1993 13.904 12.5725 14.1775C13.4242 14.3904 14.1727 14.8984 14.685 15.6113C15.1609 16.3448 15.4016 17.206 15.375 18.08C15.3931 18.779 15.2395 19.4717 14.9275 20.0975C14.6396 20.6525 14.2219 21.1298 13.71 21.4888C13.1793 21.858 12.5865 22.129 11.96 22.2888C11.306 22.4605 10.6325 22.5471 9.95625 22.5463L9.9625 22.545ZM5.8875 15.6913V19.9288H9.5C9.81926 19.9322 10.1379 19.8999 10.45 19.8325C10.7357 19.7774 11.0076 19.666 11.25 19.505C11.4834 19.3515 11.6729 19.14 11.8 18.8913C11.9474 18.5792 12.0169 18.2361 12.0025 17.8913C12.0631 17.2514 11.8152 16.621 11.335 16.1938C10.8169 15.8371 10.1956 15.6614 9.5675 15.6938L5.8875 15.6913ZM5.8875 9.78501V13.3788H9.315C9.8452 13.3996 10.3679 13.2483 10.805 12.9475C11.217 12.6053 11.434 12.0821 11.385 11.5488C11.3956 11.2426 11.3303 10.9386 11.195 10.6638C11.0728 10.4416 10.8927 10.2567 10.6737 10.1288C10.4432 9.99205 10.1886 9.90082 9.92375 9.86001C9.63529 9.80593 9.34221 9.78039 9.04875 9.78376L5.8875 9.78501ZM25.0638 9.71501H18.8263V8.19626H25.0638V9.71376V9.71501Z" fill="white"/>
</svg>
