<svg width="109" height="109" viewBox="0 0 109 109" fill="none" xmlns="http://www.w3.org/2000/svg">
<path d="M0 94.9454C0 102.708 6.29262 109 14.0546 109H94.945C102.708 109 109 102.707 109 94.9454V14.055C109 6.29177 102.707 0 94.9454 0H14.055C6.29177 0 0 6.29262 0 14.0546V94.945V94.9454Z" fill="#5398BE"/>
<path d="M45.1999 48.2146V32.7788H58.787C60.0814 32.7788 61.3289 32.8865 62.5305 33.1024C63.732 33.3178 64.7952 33.7027 65.7196 34.2575C66.6435 34.8123 67.3831 35.5825 67.9379 36.5682C68.4923 37.5543 68.7699 38.8176 68.7699 40.3577C68.7699 43.1308 67.9379 45.1337 66.2739 46.3659C64.6104 47.5985 62.4845 48.2146 59.8962 48.2146H45.1999ZM30.688 21.502V87.498H62.6693C65.6272 87.498 68.508 87.1285 71.3118 86.3889C74.1156 85.6493 76.6111 84.5095 78.7987 82.969C80.986 81.4285 82.727 79.441 84.0209 77.0072C85.3153 74.573 85.9621 71.6922 85.9621 68.3647C85.9621 64.2359 84.9606 60.7083 82.9582 57.7815C80.9553 54.8543 77.9203 52.8054 73.8533 51.6345C76.8112 50.2175 79.0453 48.3994 80.5551 46.1811C82.0645 43.9628 82.8194 41.1901 82.8194 37.8622C82.8194 34.7812 82.311 32.1933 81.2942 30.0981C80.2775 28.0032 78.8447 26.3239 76.996 25.0606C75.1477 23.7973 72.9293 22.8883 70.341 22.3339C67.7531 21.7791 64.8876 21.502 61.7449 21.502H30.688ZM45.1999 76.2212V58.1047H61.0053C64.148 58.1047 66.6746 58.8285 68.5851 60.277C70.4951 61.7251 71.4506 64.1435 71.4506 67.5327C71.4506 69.2584 71.1577 70.6754 70.5722 71.7846C69.9868 72.8937 69.2012 73.7721 68.2151 74.4189C67.2294 75.0661 66.0892 75.5281 64.7952 75.8057C63.5008 76.0824 62.1456 76.2212 60.7281 76.2212H45.1999Z" fill="white"/>
</svg>
