<svg width="103" height="83" viewBox="0 0 103 83" fill="none" xmlns="http://www.w3.org/2000/svg">
<path d="M11.3906 10.7163C11.1965 5.14108 15.5403 0 21.4117 0H81.5758C87.4472 0 91.791 5.14108 91.5969 10.7163C91.4104 16.0718 91.6526 23.0092 93.3985 28.6658C95.15 34.3399 98.1036 37.9264 102.941 38.3873V43.6127C98.1036 44.0736 95.15 47.6601 93.3985 53.3342C91.6526 58.9908 91.4104 65.9282 91.5969 71.2839C91.791 76.8589 87.4472 82 81.5758 82H21.4117C15.5403 82 11.1965 76.8589 11.3908 71.2839C11.5771 65.9282 11.335 58.9908 9.58885 53.3342C7.8375 47.6601 4.87666 44.0736 0.0390625 43.6127V38.3873C4.87646 37.9264 7.8375 34.3399 9.58885 28.6658C11.335 23.0092 11.5771 16.0718 11.3906 10.7163V10.7163Z" fill="#57679F"/>
<g filter="url(#filter0_d_358_457)">
<path d="M53.7213 62.7978C63.2271 62.7978 68.9552 58.1435 68.9552 50.4667C68.9552 44.6637 64.8681 40.4627 58.7993 39.7976V39.5558C63.258 38.8305 66.7569 34.6899 66.7569 30.0657C66.7569 23.477 61.5551 19.1851 53.6285 19.1851H35.7935V62.7978H53.7213ZM42.7293 24.716H51.9565C56.9726 24.716 59.8211 26.9525 59.8211 31.0025C59.8211 35.3246 56.5081 37.7424 50.5012 37.7424H42.7293V24.716V24.716ZM42.7293 57.267V42.9108H51.8944C58.4586 42.9108 61.8646 45.3286 61.8646 50.0436C61.8646 54.7584 58.5517 57.267 52.297 57.267H42.7293V57.267Z" fill="#171717"/>
</g>
<defs>
<filter id="filter0_d_358_457" x="19.7935" y="7.18506" width="65.1619" height="75.6128" filterUnits="userSpaceOnUse" color-interpolation-filters="sRGB">
<feFlood flood-opacity="0" result="BackgroundImageFix"/>
<feColorMatrix in="SourceAlpha" type="matrix" values="0 0 0 0 0 0 0 0 0 0 0 0 0 0 0 0 0 0 127 0" result="hardAlpha"/>
<feOffset dy="4"/>
<feGaussianBlur stdDeviation="8"/>
<feColorMatrix type="matrix" values="0 0 0 0 0 0 0 0 0 0 0 0 0 0 0 0 0 0 0.15 0"/>
<feBlend mode="normal" in2="BackgroundImageFix" result="effect1_dropShadow_358_457"/>
<feBlend mode="normal" in="SourceGraphic" in2="effect1_dropShadow_358_457" result="shape"/>
</filter>
</defs>
</svg>
