<svg width="94" height="107" viewBox="0 0 94 107" fill="none" xmlns="http://www.w3.org/2000/svg">
<path d="M83.0676 0C88.9414 0 93.5502 5.03856 93.028 10.8891L86.0521 89.037C85.6817 93.1864 82.7777 96.6715 78.7632 97.7844L49.6158 105.865C47.8666 106.35 46.0184 106.35 44.2694 105.864L15.2254 97.8013C11.2121 96.6872 8.30964 93.2023 7.93977 89.0537L0.970746 10.888C0.44916 5.03785 5.05784 0 10.9312 0H83.0676Z" fill="#5398BE"/>
<path d="M47 85.2995C47 91.9106 53.3008 96.7022 59.6716 94.936L71.4319 91.6756C75.4463 90.5626 78.3502 87.0776 78.7206 82.9282L84.4511 18.7343C84.9734 12.8838 80.3645 7.84521 74.4907 7.84521H57C51.4772 7.84521 47 12.3224 47 17.8452V85.2995Z" fill="#67B1DA"/>
<path d="M46.9999 49.3155C46.9999 46.0659 44.3656 43.4316 41.1161 43.4316H26.0459C22.589 43.4316 19.8769 46.3976 20.1855 49.8407C20.4574 52.8746 22.9999 55.1993 26.0459 55.1993H41.1161C44.3656 55.1993 46.9999 52.565 46.9999 49.3155Z" fill="#EBEBEB"/>
<path d="M47 19.654C47 19.6315 46.9818 19.6133 46.9594 19.6133H23.935C20.4751 19.6133 17.762 22.5842 18.0752 26.0299C18.3507 29.0606 20.8918 31.3812 23.935 31.3812H41.1161C44.3657 31.3812 47 28.7469 47 25.4972V19.654Z" fill="#EBEBEB"/>
<path d="M26.6362 61.0835C23.7109 61.0835 21.4155 63.5928 21.6755 66.5065L22.2251 72.6655C22.5952 76.8138 25.4976 80.2983 29.5106 81.4124L46.9313 86.2485C46.9408 86.2511 46.9508 86.2511 46.9603 86.2485C46.9837 86.242 47 86.2206 47 86.1963V74.0382C47 74.0159 46.9788 73.9996 46.9572 74.0054C46.9514 74.0069 46.9454 74.0069 46.9396 74.0053L37.778 71.5315C35.4135 70.8931 33.6978 68.8481 33.48 66.4086C33.2109 63.394 30.685 61.0835 27.6585 61.0835H26.6362Z" fill="#EBEBEB"/>
<path d="M53.881 55.1993C57.9474 55.1993 61.1378 58.6879 60.7753 62.7381L60.6159 64.5182C60.2964 68.089 57.7846 71.0819 54.3234 72.0161L51.31 72.8294C48.7427 73.5224 46.9592 75.851 46.9592 78.5102C46.9592 82.3999 50.6662 85.2193 54.4147 84.1804L69.1604 80.0936C70.3175 79.773 71.1544 78.7684 71.2609 77.5724L74.0262 46.5916L74.3133 43.4316L75.4666 30.5017C75.9884 24.6514 71.3797 19.6133 65.5061 19.6133H52.8432C49.5936 19.6133 46.9592 22.2476 46.9592 25.4973C46.9592 28.7469 49.5936 31.3812 52.8432 31.3812H56.9569C60.4951 31.3812 63.2717 34.4155 62.9585 37.9397C62.6823 41.0484 60.0779 43.4316 56.9569 43.4316H52.8431C49.5935 43.4316 46.9592 46.0659 46.9592 49.3155C46.9592 52.565 49.5935 55.1993 52.8431 55.1993H53.881Z" fill="white"/>
</svg>
