<svg width="14" height="14" viewBox="0 0 14 14" fill="none" xmlns="http://www.w3.org/2000/svg">
<path d="M12.8368 5.12146L3.03732 0.220051C2.65059 0.0275025 2.2139 -0.0410462 1.7868 0.0237512C1.35969 0.0885486 0.962959 0.283539 0.650686 0.582136C0.338414 0.880734 0.1258 1.26841 0.0418322 1.6923C-0.0421352 2.11619 0.00663017 2.55568 0.18148 2.95083L1.86139 6.71091C1.89951 6.80182 1.91914 6.89941 1.91914 6.99799C1.91914 7.09657 1.89951 7.19417 1.86139 7.28508L0.18148 11.0452C0.0391776 11.3649 -0.0209803 11.7152 0.00647321 12.0642C0.0339267 12.4132 0.148121 12.7497 0.338679 13.0433C0.529236 13.3369 0.790115 13.5782 1.09761 13.7453C1.4051 13.9124 1.74945 13.9999 2.09938 14C2.42712 13.9967 2.74998 13.9202 3.04432 13.7759L12.8438 8.87453C13.1914 8.69961 13.4836 8.43152 13.6877 8.10017C13.8919 7.76881 14 7.38723 14 6.99799C14 6.60876 13.8919 6.22718 13.6877 5.89582C13.4836 5.56447 13.1914 5.29638 12.8438 5.12146H12.8368ZM12.2138 7.62117L2.41436 12.5226C2.28568 12.5844 2.14119 12.6054 2.00025 12.5827C1.85932 12.56 1.72868 12.4948 1.62586 12.3957C1.52304 12.2967 1.45295 12.1686 1.42498 12.0285C1.39702 11.8885 1.41252 11.7433 1.46941 11.6123L3.14232 7.85224C3.16398 7.80203 3.18267 7.75059 3.19832 7.69819H8.02105C8.20669 7.69819 8.38473 7.62442 8.516 7.49311C8.64727 7.3618 8.72101 7.1837 8.72101 6.99799C8.72101 6.81229 8.64727 6.63419 8.516 6.50288C8.38473 6.37156 8.20669 6.29779 8.02105 6.29779H3.19832C3.18267 6.2454 3.16398 6.19396 3.14232 6.14375L1.46941 2.38367C1.41252 2.25271 1.39702 2.10748 1.42498 1.96745C1.45295 1.82742 1.52304 1.6993 1.62586 1.60025C1.72868 1.5012 1.85932 1.43597 2.00025 1.4133C2.14119 1.39063 2.28568 1.4116 2.41436 1.47341L12.2138 6.37482C12.3285 6.43357 12.4247 6.52285 12.4919 6.6328C12.5591 6.74275 12.5946 6.86912 12.5946 6.99799C12.5946 7.12686 12.5591 7.25323 12.4919 7.36319C12.4247 7.47314 12.3285 7.56241 12.2138 7.62117Z" fill="white"/>
</svg>
