<svg width="75" height="112" viewBox="0 0 75 112" fill="none" xmlns="http://www.w3.org/2000/svg">
<path d="M18.7538 112C29.1018 112 37.5001 103.637 37.5001 93.3333V74.6666H18.7538C8.40589 74.6666 0.00756836 83.0293 0.00756836 93.3333C0.00756836 103.637 8.40589 112 18.7538 112Z" fill="#5398BE"/>
<path d="M0.00756836 55.9999C0.00756836 45.6959 8.40589 37.3333 18.7538 37.3333H37.5001V74.6666H18.7538C8.40589 74.6666 0.00756836 66.3039 0.00756836 55.9999Z" fill="#5398BE"/>
<path d="M0.00756836 18.6667C0.00756836 8.36266 8.40589 0 18.7538 0H37.5001V37.3333H18.7538C8.40589 37.3333 0.00756836 28.9707 0.00756836 18.6667Z" fill="#5398BE"/>
<path d="M37.5 0H56.2463C66.5942 0 74.9925 8.36266 74.9925 18.6667C74.9925 28.9707 66.5942 37.3333 56.2463 37.3333H37.5V0Z" fill="#5398BE"/>
<path d="M74.9925 55.9999C74.9925 66.3039 66.5942 74.6666 56.2463 74.6666C45.8983 74.6666 37.5 66.3039 37.5 55.9999C37.5 45.6959 45.8983 37.3333 56.2463 37.3333C66.5942 37.3333 74.9925 45.6959 74.9925 55.9999Z" fill="#5398BE"/>
</svg>
