<svg width="25" height="25" viewBox="0 0 25 25" fill="none" xmlns="http://www.w3.org/2000/svg">
<path d="M12.5272 2.08331C7.43023 2.08266 3.08532 5.77913 2.26926 10.8103C1.45321 15.8415 4.40697 20.7218 9.24281 22.3323C9.76364 22.426 9.9501 22.1062 9.9501 21.8312C9.9501 21.5844 9.94176 20.9302 9.93864 20.0604C7.04801 20.6854 6.4376 18.6666 6.4376 18.6666C6.2473 18.0385 5.8382 17.4993 5.28447 17.1469C4.34697 16.5021 5.35635 16.5166 5.35635 16.5166C6.02372 16.6082 6.61109 17.0036 6.94697 17.5875C7.23128 18.1044 7.71026 18.4864 8.2775 18.6485C8.84473 18.8107 9.45324 18.7396 9.96781 18.451C10.0162 17.9239 10.2507 17.4313 10.6293 17.0614C8.32301 16.8 5.89801 15.9083 5.89801 11.926C5.88521 10.896 6.2677 9.90029 6.96676 9.14373C6.65046 8.24718 6.68771 7.26379 7.07093 6.39373C7.07093 6.39373 7.94281 6.11352 9.92718 7.45727C11.6291 6.99061 13.4253 6.99061 15.1272 7.45727C17.1126 6.11248 17.9834 6.39373 17.9834 6.39373C18.3684 7.26337 18.4057 8.24745 18.0876 9.14373C18.7892 9.90022 19.1714 10.8986 19.1543 11.9302C19.1543 15.9229 16.7272 16.8 14.4126 17.0573C14.9119 17.5678 15.168 18.268 15.1157 18.9802C15.1157 20.3698 15.1032 21.4906 15.1032 21.8312C15.1032 22.1094 15.2886 22.4323 15.8188 22.3302C20.6527 20.717 23.6033 15.8364 22.7855 10.8066C21.9678 5.7767 17.6231 2.08215 12.5272 2.08331Z" fill="white"/>
</svg>
