<svg width="79" height="90" viewBox="0 0 79 90" fill="none" xmlns="http://www.w3.org/2000/svg">
<path d="M0.00858856 2.97936L5.87327 77.7067C5.96131 78.8288 6.72392 79.7857 7.80124 80.1259L38.6613 89.8708C39.207 90.0431 39.7929 90.0431 40.3387 89.8708L71.1987 80.1259C72.2761 79.7857 73.0387 78.8288 73.1267 77.7067L78.9914 2.97936C79.1175 1.37276 77.8427 0 76.2248 0H2.77535C1.15751 0 -0.117334 1.37276 0.00858856 2.97936ZM64.3026 21.6937C64.1046 24.2176 61.9987 26.1647 59.467 26.1647H31.6357C28.4833 26.1647 26.0285 28.9013 26.3698 32.0352V32.0352C26.6624 34.7229 28.9321 36.759 31.6357 36.759H52.3049C58.1362 36.759 62.7305 41.728 62.2743 47.5414L61.2777 60.2387C60.9588 64.3018 58.206 67.7649 54.3195 68.9921L42.5113 72.7209C40.5515 73.3397 38.4487 73.3397 36.4889 72.7209L24.0465 68.7919C20.5433 67.6857 18.062 64.5641 17.7745 60.9017L17.4652 56.96C17.2207 53.845 19.6825 51.1825 22.8071 51.1825H23.7871C26.2052 51.1825 28.1654 53.1427 28.1654 55.5607V55.5607C28.1654 57.5433 29.4976 59.2785 31.413 59.7905L37.208 61.3395C38.9048 61.7931 40.6911 61.7917 42.3873 61.3356L46.6097 60.2001C49.455 59.435 51.5046 56.9534 51.7183 54.0148V54.0148C52.0101 50.0028 48.8338 46.5872 44.8113 46.5872H25.897C20.6776 46.5872 16.336 42.573 15.9276 37.3696L15.1332 27.2462C14.677 21.4328 19.2713 16.4638 25.1025 16.4638H59.467C62.2954 16.4638 64.5239 18.8739 64.3026 21.6937V21.6937Z" fill="#57679F"/>
</svg>
