<svg width="94" height="107" viewBox="0 0 94 107" fill="none" xmlns="http://www.w3.org/2000/svg">
<path d="M0.0102193 3.54213L6.98844 92.3846C7.0932 93.7187 8.00062 94.8563 9.28249 95.2608L46.002 106.846C46.6514 107.051 47.3486 107.051 47.9979 106.846L84.7175 95.2608C85.9993 94.8563 86.9068 93.7187 87.0115 92.3846L93.9897 3.54213C94.1398 1.63206 92.6229 0 90.6979 0H3.30232C1.37728 0 -0.139613 1.63206 0.0102193 3.54213ZM76.512 25.7917C76.2763 28.7923 73.7727 31.107 70.763 31.107H37.6373C33.8892 31.107 30.9707 34.3608 31.3767 38.0869C31.7249 41.282 34.4233 43.7023 37.6373 43.7023H64.2891C70.1206 43.7023 74.7151 48.6718 74.2584 54.4854L72.813 72.8858C72.4938 76.9495 69.74 80.4128 65.8527 81.6393L50.009 86.6382C48.0507 87.256 45.9496 87.256 43.9912 86.6382L28.1476 81.6393C24.2602 80.4128 21.5064 76.9495 21.1872 72.8858L20.7818 67.725C20.4907 64.0186 23.4198 60.8503 27.1377 60.8503H28.3085C31.183 60.8503 33.5132 63.1805 33.5132 66.055C33.5132 68.4123 35.0975 70.4753 37.3749 71.0835L44.7666 73.0577C46.4621 73.5106 48.247 73.5093 49.9419 73.0539L55.4636 71.5702C58.8467 70.6612 61.284 67.711 61.5383 64.2172C61.8854 59.4477 58.1095 55.387 53.3274 55.387H29.058C23.8388 55.387 19.4973 51.3732 19.0887 46.17L17.8466 30.3566C17.39 24.543 21.9844 19.5736 27.8159 19.5736H70.763C74.1258 19.5736 76.7752 22.4393 76.512 25.7917Z" fill="#5398BE"/>
</svg>
