<svg width="25" height="25" viewBox="0 0 25 25" fill="none" xmlns="http://www.w3.org/2000/svg">
<path d="M12.5022 21.9177C9.9397 21.9177 9.63761 21.9041 8.63761 21.8604C7.85779 21.8348 7.08807 21.6762 6.36157 21.3916C5.10461 20.9025 4.11068 19.9082 3.62199 18.651C3.34835 17.9219 3.20076 17.1515 3.18553 16.3729C3.1272 15.375 3.1272 15.0479 3.1272 12.5052C3.1272 9.9354 3.14074 9.6354 3.18553 8.6406C3.20109 7.86302 3.34868 7.09374 3.62199 6.3656C4.11015 5.10678 5.10569 4.11162 6.3647 3.62394C7.09245 3.34915 7.86193 3.20117 8.6397 3.18644C9.63449 3.13019 9.96157 3.13019 12.5022 3.13019C15.0855 3.13019 15.3824 3.14373 16.3668 3.18644C17.1466 3.2013 17.9181 3.34926 18.648 3.62394C19.9067 4.11217 20.902 5.10714 21.3907 6.3656C21.669 7.10435 21.8174 7.88566 21.8293 8.67498C21.8876 9.6729 21.8876 9.99894 21.8876 12.5406C21.8876 15.0823 21.873 15.4156 21.8293 16.4021C21.8138 17.1814 21.6658 17.9525 21.3918 18.6823C20.9018 19.9403 19.9064 20.935 18.648 21.4239C17.9191 21.6971 17.1492 21.8446 16.3709 21.8604C15.3762 21.9177 15.0501 21.9177 12.5022 21.9177ZM12.4668 4.77915C9.91886 4.77915 9.65428 4.79165 8.65949 4.83644C8.06572 4.8443 7.4777 4.95388 6.92095 5.1604C6.09881 5.47499 5.44827 6.12289 5.13032 6.94373C4.92221 7.50654 4.81262 8.101 4.80636 8.70102C4.75116 9.7104 4.75116 9.97498 4.75116 12.5052C4.75116 15.0052 4.76053 15.3083 4.80636 16.3114C4.81569 16.9054 4.92521 17.4935 5.13032 18.051C5.44873 18.8713 6.09917 19.5187 6.92095 19.8333C7.47732 20.0412 8.06558 20.1508 8.65949 20.1573C9.66782 20.2156 9.93345 20.2156 12.4668 20.2156C15.022 20.2156 15.2866 20.2031 16.273 20.1573C16.8672 20.15 17.4557 20.0405 18.0126 19.8333C18.8298 19.516 19.4761 18.8701 19.7939 18.0531C20.0016 17.4898 20.1111 16.8951 20.1178 16.2948H20.1293C20.1741 15.2989 20.1741 15.0333 20.1741 12.4885C20.1741 9.94373 20.1626 9.67602 20.1178 8.68123C20.1085 8.08795 19.999 7.50051 19.7939 6.94373C19.4768 6.12558 18.8304 5.47841 18.0126 5.1604C17.4558 4.95284 16.8672 4.84323 16.273 4.83644C15.2657 4.77915 15.0022 4.77915 12.4668 4.77915ZM12.5022 17.3166C10.5543 17.3179 8.79743 16.1455 8.05101 14.3463C7.3046 12.547 7.71564 10.4753 9.09244 9.09733C10.4692 7.71935 12.5406 7.30651 14.3405 8.05137C16.1404 8.79622 17.3143 10.5521 17.3147 12.5C17.3118 15.1573 15.1596 17.3115 12.5022 17.3166ZM12.5022 9.3729C10.7763 9.3729 9.3772 10.772 9.3772 12.4979C9.3772 14.2238 10.7763 15.6229 12.5022 15.6229C14.2281 15.6229 15.6272 14.2238 15.6272 12.4979C15.6232 10.7737 14.2264 9.37691 12.5022 9.3729ZM17.5022 8.63019C16.8828 8.62789 16.3823 8.12455 16.3835 7.5052C16.3846 6.88584 16.887 6.38436 17.5064 6.38436C18.1257 6.38436 18.6281 6.88583 18.6293 7.50519C18.6296 7.804 18.5108 8.09063 18.2993 8.30173C18.0879 8.51283 17.801 8.63102 17.5022 8.63019Z" fill="white"/>
</svg>
