<svg width="30" height="30" viewBox="0 0 30 30" fill="none" xmlns="http://www.w3.org/2000/svg">
<path d="M15.0024 26.3012C11.9274 26.3012 11.5649 26.285 10.3649 26.2325C9.42916 26.2017 8.50548 26.0115 7.63369 25.67C6.12533 25.083 4.93262 23.8898 4.34619 22.3812C4.01782 21.5063 3.84071 20.5818 3.82244 19.6475C3.75244 18.45 3.75244 18.0575 3.75244 15.0062C3.75244 11.9225 3.76869 11.5625 3.82244 10.3687C3.84111 9.43563 4.01822 8.51249 4.34619 7.63873C4.93198 6.12814 6.12663 4.93394 7.63744 4.34873C8.51075 4.01898 9.43412 3.84141 10.3674 3.82373C11.5612 3.75623 11.9537 3.75623 15.0024 3.75623C18.1024 3.75623 18.4587 3.77248 19.6399 3.82373C20.5757 3.84156 21.5015 4.01911 22.3774 4.34873C23.8878 4.9346 25.0822 6.12857 25.6687 7.63873C26.0026 8.52522 26.1806 9.46279 26.1949 10.41C26.2649 11.6075 26.2649 11.9987 26.2649 15.0487C26.2649 18.0987 26.2474 18.4987 26.1949 19.6825C26.1763 20.6177 25.9988 21.543 25.6699 22.4187C25.082 23.9284 23.8875 25.122 22.3774 25.7087C21.5027 26.0365 20.5788 26.2136 19.6449 26.2325C18.4512 26.3012 18.0599 26.3012 15.0024 26.3012ZM14.9599 5.73498C11.9024 5.73498 11.5849 5.74998 10.3912 5.80373C9.67867 5.81317 8.97304 5.94465 8.30494 6.19248C7.31838 6.56999 6.53772 7.34747 6.15619 8.33248C5.90646 9.00785 5.77495 9.7212 5.76744 10.4412C5.70119 11.6525 5.70119 11.97 5.70119 15.0062C5.70119 18.0062 5.71244 18.37 5.76744 19.5737C5.77863 20.2865 5.91006 20.9922 6.15619 21.6612C6.53829 22.6456 7.31881 23.4225 8.30494 23.8C8.97258 24.0494 9.6785 24.181 10.3912 24.1887C11.6012 24.2587 11.9199 24.2587 14.9599 24.2587C18.0262 24.2587 18.3437 24.2437 19.5274 24.1887C20.2404 24.1801 20.9466 24.0485 21.6149 23.8C22.5955 23.4192 23.3711 22.6441 23.7524 21.6637C24.0017 20.9878 24.1332 20.2741 24.1412 19.5537H24.1549C24.2087 18.3587 24.2087 18.04 24.2087 14.9862C24.2087 11.9325 24.1949 11.6112 24.1412 10.4175C24.13 9.70554 23.9986 9.00062 23.7524 8.33248C23.372 7.35069 22.5963 6.57409 21.6149 6.19248C20.9468 5.9434 20.2405 5.81188 19.5274 5.80373C18.3187 5.73498 18.0024 5.73498 14.9599 5.73498ZM15.0024 20.78C12.6649 20.7815 10.5567 19.3746 9.66102 17.2155C8.76532 15.0564 9.25857 12.5704 10.9107 10.9168C12.5629 9.26322 15.0485 8.76781 17.2084 9.66164C19.3683 10.5555 20.7769 12.6625 20.7774 15C20.774 18.1888 18.1913 20.7738 15.0024 20.78ZM15.0024 11.2475C12.9314 11.2475 11.2524 12.9264 11.2524 14.9975C11.2524 17.0685 12.9314 18.7475 15.0024 18.7475C17.0735 18.7475 18.7524 17.0685 18.7524 14.9975C18.7476 12.9284 17.0715 11.2523 15.0024 11.2475ZM21.0024 10.3562C20.2592 10.3535 19.6586 9.74946 19.6599 9.00624C19.6613 8.26301 20.2642 7.66124 21.0074 7.66124C21.7507 7.66124 22.3536 8.263 22.3549 9.00623C22.3553 9.3648 22.2128 9.70876 21.959 9.96207C21.7052 10.2154 21.361 10.3572 21.0024 10.3562Z" fill="white"/>
</svg>
