<svg width="93" height="127" viewBox="0 0 93 127" fill="none" xmlns="http://www.w3.org/2000/svg">
<path d="M29.9491 97.4531C29.9491 97.4531 25.1218 100.259 33.3726 101.194C43.3721 102.326 48.4703 102.178 59.4796 100.086C59.4796 100.086 62.3859 101.907 66.425 103.482C41.7466 114.04 10.5659 102.867 29.9491 97.4531ZM26.9444 83.6473C26.9444 83.6473 21.5506 87.634 29.8014 88.4953C40.4658 89.6027 48.9137 89.6766 63.4942 86.8711C63.4942 86.8711 65.5138 88.9137 68.6909 90.0211C38.8157 98.7574 5.5662 90.7348 26.9444 83.6473V83.6473ZM52.3617 60.2438C58.4452 67.2328 50.7608 73.5328 50.7608 73.5328C50.7608 73.5328 66.2034 65.5594 59.1102 55.5926C52.4849 46.2902 47.4113 41.6637 74.8975 25.7414C74.9221 25.7414 31.7471 36.5203 52.3617 60.2438V60.2438ZM85.0201 107.641C85.0201 107.641 88.5914 110.57 81.1041 112.859C66.8437 117.165 21.7969 118.47 9.28522 113.031C4.77807 111.087 13.2259 108.355 15.8859 107.789C18.6443 107.198 20.2452 107.297 20.2452 107.297C15.2455 103.778 -12.093 114.212 6.35434 117.19C56.6472 125.36 98.0736 113.523 85.0201 107.641V107.641ZM32.2643 69.3492C32.2643 69.3492 9.33448 74.7879 24.1366 76.7566C30.3925 77.5934 42.8549 77.3965 54.4552 76.4367C63.9375 75.6492 73.469 73.9266 73.469 73.9266C73.469 73.9266 70.1194 75.3539 67.7058 77.0027C44.4311 83.1305 -0.517218 80.2758 12.4131 74.025C23.3731 68.7586 32.2643 69.3492 32.2643 69.3492V69.3492ZM73.3951 92.3098C97.0638 80.0297 86.1038 68.2172 78.4687 69.8168C76.5969 70.2105 75.7595 70.5551 75.7595 70.5551C75.7595 70.5551 76.4491 69.4723 77.7791 69.0047C92.8768 63.6891 104.502 84.6563 72.9025 92.9496C72.9025 92.925 73.272 92.6051 73.3951 92.3098ZM59.1102 0C59.1102 0 72.2129 13.0922 46.6724 33.2227C26.2055 49.3664 41.9928 58.5949 46.6724 69.1031C34.7272 58.3242 25.9592 48.8496 31.8456 40.0148C40.4905 27.0949 64.4054 20.7949 59.1102 0ZM34.6041 125.606C57.3122 127.058 92.1872 124.794 93 114.064C93 114.064 91.4237 118.125 74.2325 121.373C54.8493 125.016 30.9343 124.597 16.7725 122.259C16.7725 122.235 19.6788 124.646 34.6041 125.606" fill="#5398BE"/>
</svg>
