<svg width="107" height="107" viewBox="0 0 107 107" fill="none" xmlns="http://www.w3.org/2000/svg">
<path d="M0 5C0 2.23858 2.23858 0 5 0H102C104.761 0 107 2.23858 107 5V102C107 104.761 104.761 107 102 107H5C2.23858 107 0 104.761 0 102V5Z" fill="#5398BE"/>
<path d="M28.1342 89.4169L36.3222 84.4615C37.9021 87.2623 39.3391 89.6322 42.7861 89.6322C46.0901 89.6322 48.1737 88.3398 48.1737 83.3125V49.1235H58.2288V83.4546C58.2288 93.8691 52.1239 98.6097 43.217 98.6097C35.1732 98.6097 30.5041 94.4438 28.1338 89.4161L28.1342 89.4169ZM63.6904 88.3394L71.8776 83.5992C74.033 87.1189 76.8343 89.7045 81.7897 89.7045C85.9564 89.7045 88.613 87.6213 88.613 84.7482C88.613 81.3008 85.8837 80.0795 81.2869 78.0691L78.7736 76.9907C71.5189 73.9032 66.7069 70.0244 66.7069 61.8364C66.7069 54.2946 72.4527 48.5483 81.4311 48.5483C87.8235 48.5483 92.4203 50.7753 95.7239 56.593L87.8945 61.6211C86.1704 58.5328 84.3038 57.3119 81.4306 57.3119C78.4856 57.3119 76.6182 59.1794 76.6182 61.6211C76.6182 64.6376 78.4856 65.8593 82.7949 67.7268L85.3086 68.8039C93.856 72.4674 98.6681 76.202 98.6681 84.6048C98.6681 93.6555 91.5576 98.611 82.0049 98.611C72.6679 98.611 66.6346 94.1579 63.69 88.3398" fill="white"/>
</svg>
