<svg width="90" height="89" viewBox="0 0 90 89" fill="none" xmlns="http://www.w3.org/2000/svg">
<path d="M72.4617 67.0216C77.395 73.5422 64.2188 78.2806 58.9072 68.8572L51.6913 72.9981L52.1335 73.7224C54.8518 78.2489 59.0979 80.9004 64.8371 81.6617C77.4023 83.1478 85.6055 75.2241 81.1528 63.9718C77.9883 57.5371 69.6973 56.3203 64.8633 53.1479C62.0206 51.5102 62.6123 48.0436 64.8954 46.6529C66.6712 45.5713 70.752 45.4343 72.8537 49.7445L79.7585 45.3438C74.3115 35.6348 61.4355 37.5903 57.5761 42.0017C52.328 48.0987 53.8292 54.9036 58.4473 59.2754C62.0391 62.6756 67.676 63.8301 72.4617 67.0216ZM39.8387 80.7661C43.8166 79.1751 46.15 75.886 46.7673 70.9966C46.8209 70.5016 46.8567 38.9082 46.8567 38.9082H38.1048L38.0416 70.1587C37.8369 72.1821 36.6138 73.6323 34.8267 73.9167C31.7774 74.4019 29.7446 73.5239 27.6261 69.6013L20.5009 73.8614C23.5547 80.9605 32.7608 83.5676 39.8387 80.7661ZM7.8879 0H82.1121C86.4821 0 90 3.47883 90 7.80026V81.1997C90 85.5212 86.4821 89 82.1121 89H7.8879C3.51792 89 0 85.5212 0 81.1997V7.80026C2.8125e-07 3.47883 3.51792 0 7.8879 0Z" fill="#57679F"/>
</svg>
