<svg width="27" height="27" viewBox="0 0 27 27" fill="none" xmlns="http://www.w3.org/2000/svg">
<path d="M26 14.6261C25.7811 16.9953 24.8919 19.2532 23.4366 21.1355C21.9812 23.0178 20.0199 24.4467 17.7822 25.255C15.5444 26.0633 13.1227 26.2176 10.8004 25.6997C8.47813 25.1819 6.35137 24.0135 4.66895 22.3311C2.98654 20.6486 1.81806 18.5219 1.30025 16.1996C0.782443 13.8773 0.936715 11.4556 1.74502 9.21785C2.55332 6.98006 3.98222 5.01876 5.86453 3.56343C7.74683 2.1081 10.0047 1.21894 12.3739 1C10.9868 2.87657 10.3193 5.18868 10.4928 7.51579C10.6664 9.8429 11.6694 12.0304 13.3195 13.6805C14.9696 15.3306 17.1571 16.3336 19.4842 16.5072C21.8113 16.6807 24.1234 16.0132 26 14.6261V14.6261Z" stroke="#242329" stroke-width="2" stroke-linecap="round" stroke-linejoin="round"/>
</svg>
