<svg width="106" height="102" viewBox="0 0 106 102" fill="none" xmlns="http://www.w3.org/2000/svg">
<path d="M4.39844 4.35889H101.168V97.6409H4.39844V4.35889Z" fill="#67B1DA"/>
<path d="M4.39853 4.35891H101.168V97.6409H4.39853V4.35891ZM0 102H105.566V0H0V102ZM71.1693 41.8461C67.6943 41.8461 66.5068 43.5896 66.5068 45.0281C66.5068 46.5972 67.2985 47.687 71.9611 50.0845C78.8668 53.3974 81.0222 56.5793 81.0222 61.2435C81.0222 68.2178 75.6559 71.9665 68.3982 71.9665C64.5714 71.9665 61.2723 71.1818 59.381 70.0923C59.0732 69.9615 59.0292 69.7436 59.0292 69.3947V62.987C59.0292 62.5512 59.2491 62.4203 59.5571 62.6384C62.3282 64.4257 65.4951 65.2102 68.3982 65.2102C71.8731 65.2102 73.3246 63.7717 73.3246 61.8101C73.3246 60.2409 72.3129 58.8461 67.8702 56.5793C61.6242 53.6153 59.0292 50.6077 59.0292 45.5948C59.0292 39.9716 63.4719 35.3076 71.1693 35.3076C74.9521 35.3076 77.5912 35.8744 79.0427 36.5282C79.3946 36.7461 79.4825 37.0947 79.4825 37.3998V43.3715C79.4825 43.7202 79.2626 43.9383 78.8227 43.8074C76.8874 42.5872 74.0283 41.8461 71.1693 41.8461ZM33.3413 47.0333C34.353 47.1204 35.1448 47.1204 36.9042 47.1204C42.0508 47.1204 46.8891 45.3333 46.8891 38.4026C46.8891 32.8668 43.4141 30.0769 37.5641 30.0769C35.8047 30.0769 34.1331 30.164 33.3413 30.2076V47.0333ZM25.512 23.8871C25.512 23.582 26.1279 23.3639 26.4795 23.3639C29.2948 23.2332 33.4734 23.146 37.828 23.146C50.012 23.146 54.7624 29.7716 54.7624 38.2281C54.7624 49.2998 46.669 54.0511 36.7283 54.0511C35.0569 54.0511 34.4851 53.964 33.2973 53.964V70.7024C33.2973 71.0511 33.1654 71.2254 32.7696 71.2254H26.0397C25.6879 71.2254 25.5118 71.0947 25.5118 70.7024V23.8871H25.512Z" fill="#5398BE"/>
</svg>
