<svg width="123" height="109" viewBox="0 0 123 109" fill="none" xmlns="http://www.w3.org/2000/svg">
<path d="M101.131 35.2929C99.8547 34.8559 98.5325 34.4424 97.1712 34.0514C97.3949 33.1427 97.6003 32.2459 97.7829 31.3643C100.78 16.8878 98.8204 5.22542 92.1286 1.38568C85.712 -2.29612 75.218 1.54275 64.6197 10.7201C63.6005 11.6026 62.5785 12.537 61.5569 13.5162C60.8762 12.8683 60.1967 12.2422 59.5188 11.6434C48.4114 1.83031 37.278 -2.30505 30.5927 1.5458C24.1822 5.23828 22.2838 16.202 24.9817 29.9215C25.2423 31.2466 25.5468 32.5999 25.8912 33.9758C24.3155 34.4208 22.7943 34.8953 21.3388 35.4001C8.31659 39.9175 0 46.9975 0 54.3413C0 61.926 8.92787 69.5336 22.4915 74.1465C23.5619 74.5105 24.6726 74.8547 25.8172 75.1814C25.4457 76.6696 25.1225 78.1278 24.8513 79.5501C22.2787 93.0315 24.2877 103.736 30.6811 107.405C37.285 111.195 48.3681 107.3 59.1602 97.9132C60.0132 97.1712 60.8692 96.3843 61.7268 95.5596C62.8384 96.6246 63.9482 97.6326 65.0521 98.578C75.5055 107.529 85.83 111.143 92.2175 107.464C98.8148 103.663 100.959 92.164 98.1752 78.1731C97.9626 77.1046 97.7152 76.013 97.4374 74.902C98.2157 74.673 98.9798 74.4366 99.7249 74.1909C113.826 69.5423 123 62.0273 123 54.3413C123 46.9709 114.415 39.8432 101.131 35.2929ZM98.0723 69.2282C97.3998 69.4497 96.7097 69.6639 96.0064 69.8715C94.4498 64.968 92.3489 59.7539 89.7779 54.3668C92.2313 49.108 94.251 43.9605 95.7641 39.0888C97.0223 39.4511 98.2435 39.8332 99.4203 40.2364C110.803 44.1352 117.745 49.8996 117.745 54.3413C117.745 59.0724 110.247 65.2142 98.0723 69.2282ZM93.0206 79.1885C94.2514 85.3751 94.4272 90.9685 93.6119 95.3411C92.8793 99.2701 91.4061 101.89 89.5845 102.939C85.7082 105.171 77.4188 102.269 68.4789 94.6148C67.454 93.7373 66.4217 92.8004 65.3862 91.8087C68.852 88.0372 72.3158 83.6526 75.6964 78.7831C81.6425 78.2581 87.2603 77.3998 92.3548 76.228C92.6057 77.2351 92.8285 78.2228 93.0206 79.1885ZM41.9335 102.553C38.1463 103.884 35.13 103.922 33.3067 102.876C29.4268 100.649 27.8139 92.0544 30.014 80.5252C30.266 79.2048 30.566 77.8485 30.9117 76.4622C35.9503 77.5708 41.5269 78.3685 47.4873 78.8493C50.8907 83.6143 54.4546 87.994 58.046 91.829C57.2614 92.5827 56.4797 93.3003 55.7025 93.9765C50.9303 98.1271 46.148 101.072 41.9335 102.553ZM24.1909 69.1992C18.1933 67.1595 13.2403 64.5086 9.84522 61.6158C6.79453 59.0162 5.2543 56.4354 5.2543 54.3413C5.2543 49.8848 11.9317 44.2006 23.0684 40.3371C24.4197 39.8683 25.8343 39.4265 27.3023 39.0115C28.8414 43.9932 30.8605 49.2016 33.297 54.4685C30.8289 59.8135 28.7812 65.105 27.227 70.1451C26.1804 69.8458 25.1665 69.5308 24.1909 69.1992ZM30.1384 28.9174C27.8268 17.1629 29.362 8.29574 33.2252 6.07066C37.3402 3.70029 46.4394 7.07994 56.0298 15.553C56.6429 16.0946 57.2583 16.6614 57.8755 17.2479C54.3017 21.066 50.7705 25.4129 47.3973 30.1498C41.6125 30.6833 36.0751 31.5403 30.9839 32.6879C30.6638 31.4067 30.3803 30.148 30.1384 28.9174ZM83.195 41.9531C81.978 39.8613 80.7285 37.819 79.4547 35.8325C83.3792 36.3261 87.1392 36.9814 90.6702 37.7833C89.6102 41.1638 88.2889 44.6984 86.7335 48.3218C85.6178 46.2141 84.4377 44.089 83.195 41.9531ZM61.5587 20.9844C63.9823 23.597 66.4095 26.5139 68.7968 29.6788C66.3911 29.5657 63.9556 29.5069 61.5 29.5069C59.0676 29.5069 56.6501 29.5644 54.2593 29.6755C56.649 26.5401 59.0971 23.627 61.5587 20.9844ZM39.7837 41.9892C38.568 44.0869 37.4098 46.2004 36.3116 48.3179C34.7814 44.7071 33.4724 41.1564 32.4031 37.728C35.9125 36.9465 39.6548 36.3076 43.5543 35.8233C42.2625 37.8282 41.0028 39.8855 39.7837 41.9888V41.9892ZM43.6666 73.2322C39.6377 72.7849 35.8391 72.1789 32.3306 71.419C33.417 67.9294 34.7549 64.3029 36.3175 60.6143C37.4185 62.7303 38.5813 64.8447 39.8045 66.9469H39.8047C41.0507 69.0885 42.3416 71.1864 43.6666 73.2322ZM61.7041 88.0668C59.2136 85.3932 56.7296 82.4357 54.3035 79.2545C56.6586 79.3464 59.0597 79.3935 61.5 79.3935C64.0071 79.3935 66.4854 79.3373 68.9249 79.2292C66.5297 82.4677 64.1113 85.4298 61.7041 88.0668ZM86.7837 60.4263C88.4277 64.1548 89.8135 67.7623 90.9139 71.1925C87.3476 72.002 83.4972 72.654 79.4402 73.1385C80.7171 71.1252 81.9775 69.0478 83.2161 66.9109C84.469 64.7491 85.6588 62.5839 86.7837 60.4263ZM78.6645 64.299C76.7418 67.6161 74.7679 70.7827 72.7639 73.7718C69.114 74.0314 65.3432 74.1652 61.5 74.1652C57.6723 74.1652 53.949 74.0469 50.3637 73.8153C48.279 70.7871 46.2621 67.6111 44.3517 64.3275H44.3521C42.4467 61.0529 40.693 57.7506 39.1039 54.4668C40.6925 51.1753 42.4416 47.8693 44.3361 44.6005L44.3357 44.6012C46.2352 41.3237 48.2343 38.1632 50.2998 35.1539C53.9578 34.8787 57.7089 34.7352 61.4998 34.7352H61.5C65.308 34.7352 69.0639 34.8798 72.7208 35.1574C74.7547 38.1447 76.7403 41.295 78.6472 44.5729C80.5759 47.8876 82.3475 51.1716 83.9497 54.3925C82.3523 57.6686 80.5846 60.9858 78.6645 64.299ZM89.504 5.91512C93.6229 8.27853 95.2246 17.8101 92.6367 30.309C92.4717 31.1065 92.2858 31.9189 92.0839 32.7421C86.9809 31.5706 81.4396 30.6987 75.6379 30.1572C72.2582 25.3683 68.7558 21.0146 65.2403 17.2455C66.1855 16.3408 67.1293 15.4781 68.0692 14.664C77.1499 6.80088 85.6371 3.69637 89.504 5.91512ZM61.5 43.4126C67.5659 43.4126 72.4835 48.3054 72.4835 54.3413C72.4835 60.3769 67.5659 65.2699 61.5 65.2699C55.4341 65.2699 50.5165 60.3769 50.5165 54.3413C50.5165 48.3054 55.4341 43.4126 61.5 43.4126Z" fill="#5398BE"/>
</svg>
