<svg width="102" height="90" viewBox="0 0 102 90" fill="none" xmlns="http://www.w3.org/2000/svg">
<path d="M83.8645 29.1409C82.8063 28.7801 81.7099 28.4387 80.581 28.1158C80.7665 27.3656 80.9368 26.625 81.0883 25.8971C83.5738 13.944 81.9487 4.31457 76.3993 1.14414C71.0782 -1.89588 62.3759 1.27383 53.587 8.85149C52.7419 9.58015 51.8944 10.3516 51.0472 11.1602C50.4827 10.6252 49.9192 10.1083 49.3571 9.61379C40.1461 1.51126 30.9134 -1.90326 25.3695 1.27635C20.0535 4.32518 18.4792 13.3778 20.7166 24.7058C20.9326 25.8 21.1852 26.9173 21.4708 28.0534C20.1641 28.4209 18.9026 28.8126 17.6956 29.2294C6.89669 32.9594 0 38.8053 0 44.8689C0 51.1316 7.4036 57.4131 18.6515 61.2219C19.5392 61.5224 20.4602 61.8066 21.4094 62.0764C21.1013 63.3051 20.8333 64.5092 20.6084 65.6836C18.475 76.815 20.141 85.6537 25.4429 88.6833C30.9193 91.812 40.1101 88.5961 49.0597 80.8458C49.767 80.2331 50.4769 79.5834 51.1881 78.9024C52.1099 79.7818 53.0302 80.6141 53.9456 81.3947C62.6143 88.7851 71.1761 91.7694 76.473 88.7314C81.9439 85.5937 83.7219 76.0987 81.4136 64.5466C81.2373 63.6643 81.0322 62.763 80.8018 61.8457C81.4472 61.6566 82.0808 61.4615 82.6987 61.2586C94.392 57.4203 102 51.2152 102 44.8689C102 38.7833 94.8809 32.8981 83.8645 29.1409ZM81.3283 57.1609C80.7705 57.3438 80.1983 57.5206 79.6151 57.692C78.3242 53.6433 76.582 49.3381 74.4499 44.89C76.4845 40.5479 78.1594 36.2977 79.4141 32.2752C80.4575 32.5743 81.4703 32.8898 82.4461 33.2228C91.885 36.4419 97.6426 41.2015 97.6426 44.8689C97.6426 48.7754 91.4246 53.8466 81.3283 57.1609ZM77.139 65.385C78.1597 70.4932 78.3055 75.1116 77.6294 78.722C77.0219 81.9662 75.8002 84.1291 74.2896 84.9954C71.0751 86.8387 64.2009 84.4427 56.7874 78.1223C55.9375 77.3978 55.0814 76.6242 54.2227 75.8054C57.0967 72.6912 59.9692 69.0709 62.7726 65.0503C67.7036 64.6168 72.3622 63.9081 76.5869 62.9405C76.7949 63.7721 76.9798 64.5876 77.139 65.385ZM34.7741 84.6768C31.6335 85.7757 29.1322 85.8072 27.6201 84.9434C24.4027 83.1049 23.0652 76.0083 24.8897 66.4887C25.0987 65.3985 25.3474 64.2786 25.6341 63.1339C29.8125 64.0493 34.437 64.708 39.3797 65.1049C42.202 69.0393 45.1574 72.6556 48.1357 75.8221C47.485 76.4445 46.8369 77.037 46.1923 77.5953C42.2349 81.0224 38.2691 83.4539 34.7741 84.6768ZM20.0608 57.137C15.0872 55.4528 10.9798 53.2639 8.16433 50.8754C5.63449 48.729 4.35723 46.5981 4.35723 44.8689C4.35723 41.1893 9.89458 36.4959 19.1299 33.3059C20.2505 32.9188 21.4236 32.554 22.6409 32.2113C23.9173 36.3247 25.5916 40.6252 27.6122 44.974C25.5655 49.3873 23.8673 53.7564 22.5784 57.918C21.7106 57.6708 20.8698 57.4107 20.0608 57.137ZM24.9928 23.8768C23.0759 14.1712 24.349 6.84969 27.5526 5.01248C30.965 3.05529 38.5108 5.84583 46.4638 12.842C46.9721 13.2891 47.4825 13.7571 47.9943 14.2414C45.0307 17.394 42.1024 20.9832 39.3051 24.8943C34.5079 25.3348 29.916 26.0424 25.694 26.99C25.4286 25.9322 25.1934 24.8929 24.9928 23.8768ZM68.991 34.6401C67.9817 32.913 66.9456 31.2267 65.8893 29.5865C69.1437 29.994 72.2618 30.5351 75.19 31.1972C74.3109 33.9885 73.2151 36.9069 71.9254 39.8987C71.0001 38.1585 70.0215 36.4038 68.991 34.6401ZM51.0487 17.3265C53.0585 19.4837 55.0713 21.8922 57.051 24.5054C55.056 24.4121 53.0364 24.3635 51 24.3635C48.9829 24.3635 46.9781 24.411 44.9955 24.5027C46.9772 21.9138 49.0074 19.5086 51.0487 17.3265ZM32.9914 34.67C31.9832 36.402 31.0227 38.1471 30.112 39.8955C28.8431 36.9141 27.7576 33.9824 26.8709 31.1515C29.7811 30.5063 32.8844 29.9788 36.1182 29.5789C35.047 31.2343 34.0023 32.933 32.9914 34.6696V34.67ZM36.2113 60.4669C32.8703 60.0977 29.7202 59.5973 26.8108 58.9699C27.7117 56.0885 28.8212 53.0941 30.1169 50.0486C31.03 51.7957 31.9943 53.5415 33.0086 55.2773H33.0088C34.0421 57.0456 35.1125 58.7778 36.2113 60.4669ZM51.1692 72.7157C49.104 70.5081 47.044 68.0662 45.0322 65.4395C46.9852 65.5154 48.9763 65.5543 51 65.5543C53.079 65.5543 55.1343 65.5079 57.1572 65.4186C55.1709 68.0926 53.1655 70.5383 51.1692 72.7157ZM71.9669 49.8933C73.3303 52.9718 74.4795 55.9505 75.392 58.7828C72.4346 59.4512 69.2416 59.9896 65.8773 60.3896C66.9361 58.7272 67.9814 57.0119 69.0084 55.2476C70.0475 53.4625 71.0341 51.6748 71.9669 49.8933ZM65.234 53.0909C63.6396 55.8298 62.0026 58.4445 60.3408 60.9125C57.3141 61.1269 54.1871 61.2373 51 61.2373C47.8258 61.2373 44.7382 61.1397 41.765 60.9485C40.0362 58.448 38.3637 55.8257 36.7794 53.1145H36.7798C35.1997 50.4106 33.7454 47.6839 32.4276 44.9726C33.745 42.2549 35.1955 39.5251 36.7665 36.8261L36.7662 36.8267C38.3414 34.1205 39.9992 31.5109 41.712 29.0262C44.7455 28.799 47.8561 28.6804 50.9998 28.6804H51C54.1578 28.6804 57.2725 28.7999 60.3051 29.029C61.9917 31.4956 63.6383 34.0968 65.2197 36.8033C66.819 39.5402 68.2882 42.2518 69.6168 44.9112C68.2922 47.6163 66.8263 50.3552 65.234 53.0909ZM74.2228 4.88405C77.6385 6.83548 78.9667 14.7056 76.8207 25.0258C76.6838 25.6843 76.5297 26.355 76.3623 27.0348C72.1305 26.0674 67.5353 25.3476 62.7241 24.9004C59.9214 20.9463 57.017 17.3515 54.1017 14.2394C54.8855 13.4924 55.6682 12.7801 56.4477 12.1079C63.978 5.61541 71.0161 3.05205 74.2228 4.88405ZM51 35.8453C56.0303 35.8453 60.1083 39.8852 60.1083 44.8689C60.1083 49.8525 56.0303 53.8926 51 53.8926C45.9697 53.8926 41.8917 49.8525 41.8917 44.8689C41.8917 39.8852 45.9697 35.8453 51 35.8453Z" fill="#57679F"/>
</svg>
