<svg width="125" height="93" viewBox="0 0 125 93" fill="none" xmlns="http://www.w3.org/2000/svg">
<path d="M107.635 53.4621C105.759 53.4718 103.988 53.6702 102.327 54.0158C98.8621 54.7366 94.2579 53.7519 93.7759 50.2456C93.5476 48.5015 93.2736 47.4369 93.5476 45.3531C93.8216 43.2692 95.0545 40.3019 95.0317 40.0754C95.0088 39.8489 94.7577 38.7843 92.2462 38.7616C89.7347 38.739 87.5657 39.2373 87.3145 39.8942C87.0634 40.5511 86.5839 42.046 86.2643 43.5863C85.9445 45.2559 83.367 50.0885 80.9823 54.2104C79.9666 55.9659 77.1584 55.9241 76.8804 53.9151C76.6521 52.171 76.3781 51.1064 76.6521 49.0225C76.9261 46.9386 78.159 43.9713 78.1362 43.7448C78.1133 43.5183 77.8622 42.4537 75.3507 42.4311C72.8392 42.4084 70.6702 42.9068 70.4191 43.5636C70.1679 44.2205 69.8939 45.7608 69.3688 47.2557C68.8437 48.7507 62.7476 62.2506 61.1494 65.7388C60.3769 67.4206 59.7052 68.7823 59.2102 69.7486C59.1485 69.869 59.096 69.9947 59.026 70.1105C58.6427 70.851 58.402 71.2909 58.3512 71.3833C58.3484 71.3882 58.3411 71.4145 58.3411 71.4202C58.3411 71.4211 58.3408 71.4247 58.3404 71.4255C57.9981 72.0366 57.6332 72.6021 57.4506 72.6021C57.3136 72.6021 57.0625 70.9712 57.4963 68.7514C58.4096 64.0627 60.5786 56.7691 60.5557 56.5199C60.5557 56.384 60.9667 55.1156 59.1402 54.4587C57.3593 53.8018 56.72 54.8891 56.5602 54.8891C56.5439 54.8891 56.3816 54.8081 56.3845 54.7921C56.7032 53.0348 57.421 47.0745 52.4961 47.0745C49.5139 47.0745 45.5954 49.7526 42.9336 52.6773C41.8821 53.8327 40.7302 54.9126 39.3561 55.6558C37.6539 56.5764 35.3993 57.7978 33.0435 59.0795C31.8179 59.7596 30.5544 60.4397 29.3563 61.0857C29.146 61.1991 28.8979 61.1504 28.7283 60.9822C21.7418 53.5753 8.81904 48.343 9.367 38.3992C9.57248 34.7751 10.8282 25.2617 34.1851 13.7098C53.4094 4.30964 68.7067 6.91449 71.3552 12.6905C75.1452 20.9354 63.1586 36.2474 43.295 38.4672C35.7148 39.3053 31.7421 36.4059 30.7375 35.3187C29.6872 34.1862 29.5274 34.1182 29.1393 34.3447C28.5 34.6845 28.911 35.7038 29.1393 36.2927C29.7329 37.833 32.1759 40.5511 36.3084 41.8875C39.9615 43.0653 48.8431 43.7222 59.5968 39.5997C71.6291 34.9789 81.0358 22.1359 78.2732 11.3767C75.5105 0.458992 57.2451 -3.1425 39.9615 2.95059C29.6872 6.57473 18.5454 12.2828 10.5314 19.7122C1.01058 28.5461 -0.496312 36.2247 0.120145 39.4412C2.25132 50.4268 17.0257 57.7208 23.7928 63.16C24.1691 63.4624 24.107 64.0368 23.6825 64.2665C20.5089 65.8295 8.40806 72.1037 5.39428 78.7405C1.96952 86.2606 5.94224 91.6515 8.56789 92.3763C16.7188 94.6187 25.0981 90.5869 29.5959 83.9275C34.0938 77.2682 33.5458 68.6155 31.4681 64.6516C31.4308 64.5775 31.4474 64.4748 31.5192 64.4332C32.2961 63.9826 33.0909 63.5143 33.8654 63.066C35.4567 62.1322 37.4613 63.7718 37.1839 65.5958C37.0389 66.5497 36.9211 67.594 36.8336 68.7514C36.4911 73.0098 38.2491 78.5366 40.5551 80.7111C41.5826 81.6624 42.7927 81.6851 43.5689 81.6851C46.2631 81.6851 47.4732 79.4653 48.8202 76.8378C49.2345 76.0273 51.8091 76.5838 52.0928 77.4488C52.5703 78.9044 53.478 79.9863 55.1218 79.9863C56.9438 79.9863 58.7885 77.6423 59.6135 76.4391C59.6154 76.4362 59.6196 76.4464 59.6196 76.4498C59.6196 76.4533 59.624 76.4461 59.6259 76.4432C59.6412 76.4196 59.6848 76.3509 59.7566 76.2262C59.904 75.9887 60.0067 75.8248 60.041 75.7704C60.0491 75.7574 60.0534 75.7508 60.0534 75.7354C60.0534 75.7211 60.0568 75.6993 60.064 75.687C60.7998 74.4093 62.4396 71.5373 64.8709 66.7808C66.4195 63.7527 67.9405 60.3526 69.087 57.6776C69.6407 56.3854 71.8651 56.5776 72.2684 57.9243C72.7107 59.4052 73.5397 61.0041 74.3232 62.59C74.6675 63.2868 74.5944 64.117 74.1259 64.7371C73.8742 65.07 73.7198 65.2638 73.6895 65.3016C73.6859 65.3061 73.6804 65.3049 73.6845 65.309C73.6939 65.3183 73.7008 65.339 73.6926 65.3495C73.103 66.1146 72.4683 66.9458 71.7661 67.7548C69.2775 70.6994 66.3093 74.0744 65.8984 75.0484C65.4189 76.2036 65.5331 77.0416 66.4463 77.7212C67.1085 78.2195 68.2957 78.2874 69.5058 78.2195C71.7433 78.0609 73.3187 77.5173 74.095 77.1775C75.305 76.7472 76.7206 76.0903 78.0449 75.1163C80.4878 73.3269 81.9719 70.7673 81.8349 67.3924C81.7803 65.9113 81.3773 64.4303 80.8342 63.0067C80.578 62.3349 80.6386 61.5656 81.0586 60.9822C82.7699 58.5009 84.3106 55.9126 85.4953 53.8004C86.2603 52.4366 88.6697 52.7569 89.1182 54.2549C90.0018 57.3229 89.4744 60.5989 87.4705 63.0845C86.0642 64.8289 85.1264 66.4986 84.6661 67.7774C83.2277 71.8999 84.3464 73.7573 86.4698 74.1876C87.4287 74.3915 88.7986 73.9385 89.8032 73.5081C91.0818 73.1004 92.5887 72.3982 94.0271 71.3563C96.4701 69.5668 98.8217 67.0752 98.6847 63.7003C98.5695 61.1077 99.5606 58.3322 102.12 57.9056C104.336 57.5365 106.869 57.4527 109.758 57.7884C120.626 59.0568 122.772 65.7841 122.361 68.6155C121.95 71.4469 119.667 72.9871 118.914 73.4628C118.16 73.9385 117.909 74.097 117.978 74.4368C118.069 74.9351 118.434 74.9125 119.073 74.8218C119.964 74.6633 124.781 72.5341 124.987 67.3244C125.329 60.6651 118.936 53.3941 107.635 53.4621ZM23.7967 81.5039C20.1892 85.3998 15.1663 86.8721 12.9972 85.6263C10.6684 84.2899 11.5817 78.5366 16.011 74.4141C18.7052 71.8999 22.1756 69.5668 24.4816 68.1398C25.0067 67.8227 25.783 67.3697 26.7191 66.8034C26.8357 66.7373 26.9159 66.6954 26.9507 66.6775C26.9637 66.6708 26.9765 66.6637 26.989 66.6559C27.2533 66.492 27.6011 66.6287 27.6738 66.9311C29.0302 72.5714 27.4568 77.5446 23.7967 81.5039ZM50.0531 63.7909C48.7974 66.8261 46.1718 74.5953 44.5735 74.165C43.2036 73.8026 42.3589 67.9133 44.2996 62.0921C45.2813 59.1701 47.359 55.6819 48.5691 54.3228C50.5326 52.1483 52.7016 51.4235 53.2268 52.3069C53.8889 53.4621 50.8294 61.8882 50.0531 63.7909ZM71.7205 74.0744C71.1953 74.3462 70.693 74.5274 70.4647 74.3915C70.4005 74.3551 70.4248 74.2747 70.4768 74.1917C70.5949 74.0032 70.7678 73.8588 70.9194 73.696C71.5938 72.9721 73.5978 70.8092 74.4831 69.7254C75.052 69.0147 75.7181 68.1883 76.4275 67.2639C76.4855 67.1885 76.6065 67.2293 76.6065 67.3244C76.6065 70.79 73.2274 73.123 71.7205 74.0744ZM91.9902 67.9863C90.2464 70.0335 88.292 68.7259 89.4151 66.2825C89.7771 65.4824 90.4951 64.294 91.6288 63.0226C92.2946 62.2759 93.5367 62.6099 93.5019 63.6097C93.4917 65.5621 92.8577 66.9678 91.9902 67.9863Z" fill="#5398BE"/>
</svg>
