<svg width="83" height="85" viewBox="0 0 83 85" fill="none" xmlns="http://www.w3.org/2000/svg">
<path d="M41.5 0C64.4184 0 83 19.0294 83 42.5C83 65.9706 64.4184 85 41.5 85C18.5816 85 0 65.9706 0 42.5C0 19.0294 18.5816 0 41.5 0ZM33.2519 56.6596C33.8571 58.944 33.7914 61.0796 33.1689 63.0063L32.9441 63.6437C32.8611 63.8598 32.7642 64.0688 32.6743 64.2671C32.1902 65.2942 31.5469 66.2504 30.755 67.1358C28.341 69.824 24.9726 70.844 23.527 69.9869C21.9708 69.059 22.7455 65.2587 25.5467 62.2306C28.5589 58.9794 32.8784 56.8863 32.8784 56.8863V56.8756L33.2519 56.6596V56.6596ZM67.5274 18.1935C65.653 10.6392 53.4278 8.15646 41.8597 12.3675C34.981 14.8715 27.5283 18.8062 22.1714 23.9381C15.7977 30.0333 14.7844 35.3458 15.2028 37.5665C16.6795 45.3971 27.1583 50.5183 31.4674 54.3185V54.3398C30.1982 54.9773 20.8987 59.755 18.72 64.6992C16.3856 69.9054 19.0831 73.6277 20.8468 74.1023C26.2937 75.6465 31.8962 72.8273 34.905 68.2621C37.81 63.796 37.554 58.0585 36.3021 55.2429C38.0175 54.7648 40.0371 54.5523 42.6309 54.8746C49.8968 55.7246 51.3493 60.3996 51.0346 62.3121C50.7234 64.221 49.2259 65.3367 48.7037 65.6554C48.185 65.9777 48.0293 66.0804 48.0778 66.2965C48.1296 66.6152 48.3925 66.6152 48.804 66.5621C49.3746 66.4558 52.5943 64.9683 52.75 61.3523C52.9056 56.7835 48.6484 51.6871 41.0781 51.7898C37.9656 51.8465 35.9909 52.1121 34.5937 52.6965C34.49 52.5371 34.3827 52.4308 34.2306 52.3246C29.5618 47.1715 20.8987 43.559 21.2618 36.7058C21.3656 34.209 22.2475 27.625 37.8618 19.6563C50.675 13.1183 60.8978 14.9281 62.6615 18.9125C65.1965 24.5933 57.2112 35.1688 43.8793 36.7058C38.7956 37.2902 36.15 35.275 35.4721 34.5277C34.7493 33.7308 34.6456 33.6777 34.3862 33.8406C33.9712 34.0531 34.2306 34.7438 34.3862 35.1688C34.8012 36.2313 36.4093 38.0906 39.214 39.0469C41.6487 39.8437 47.6178 40.3183 54.7765 37.4531C62.8137 34.2692 69.0906 25.3938 67.275 17.9563L67.5274 18.1935V18.1935Z" fill="#57679F"/>
</svg>
