<svg width="90" height="90" viewBox="0 0 90 90" fill="none" xmlns="http://www.w3.org/2000/svg">
<path d="M81.8478 4.68689C80.582 7.70993 78.9762 10.5807 77.0422 13.217C68.5796 4.75719 57.0931 0 45.1259 0C20.3711 0 0 20.388 0 45.1699C0 57.5316 5.06348 69.366 14.0183 77.8961L15.6827 79.3725C23.8171 86.2271 34.1199 90 44.7508 90C68.2866 90 88.0717 71.5571 89.7478 48.0523C90.9785 36.546 87.6029 21.9932 81.8478 4.68689ZM20.4297 78.1539C19.703 79.0561 18.5895 79.5834 17.4291 79.5834C15.3076 79.5834 13.5729 77.8375 13.5729 75.7167C13.5729 73.5959 15.3194 71.85 17.4291 71.85C18.3082 71.85 19.1756 72.1547 19.8554 72.7171C21.5081 74.0529 21.7659 76.5018 20.4297 78.1539ZM81.6603 64.6322C70.5253 79.4779 46.7434 74.4747 31.4944 75.1894C31.4944 75.1894 28.7868 75.3535 26.0675 75.7987C26.0675 75.7987 27.0873 75.3652 28.4117 74.8614C39.113 71.1353 44.1765 70.4088 50.6817 67.0694C62.9301 60.8358 75.0379 47.197 77.5579 33.0074C72.893 46.658 58.7574 58.3869 45.876 63.1558C37.0501 66.4132 21.1095 69.5769 21.1095 69.5769L20.4649 69.2371C9.61123 63.9526 9.28304 40.4361 29.0095 32.8434C37.6479 29.5157 45.9112 31.3436 55.2411 29.1173C65.204 26.7504 76.7257 19.2748 81.4142 9.5261C86.6652 25.1217 92.9828 49.5404 81.6603 64.6322Z" fill="#57679F"/>
</svg>
