<svg width="18" height="18" viewBox="0 0 18 18" fill="none" xmlns="http://www.w3.org/2000/svg">
<path d="M16.5044 6.58473L3.90513 0.282923C3.4079 0.0353604 2.84644 -0.0527736 2.29731 0.0305373C1.74818 0.113848 1.23809 0.36455 0.836596 0.748461C0.435103 1.13237 0.161742 1.63081 0.0537843 2.17581C-0.0541739 2.72082 0.0085245 3.28587 0.233331 3.79393L2.39321 8.62832C2.44222 8.7452 2.46746 8.87067 2.46746 8.99742C2.46746 9.12417 2.44222 9.24964 2.39321 9.36653L0.233331 14.2009C0.0503711 14.6121 -0.0269746 15.0624 0.0083227 15.5111C0.04362 15.9598 0.190441 16.3925 0.435444 16.77C0.680446 17.1475 1.01586 17.4577 1.41121 17.6725C1.80655 17.8873 2.2493 17.9999 2.6992 18C3.12058 17.9958 3.53569 17.8974 3.91413 17.7119L16.5134 11.4101C16.9604 11.1852 17.336 10.8405 17.5985 10.4145C17.861 9.98847 18 9.49787 18 8.99742C18 8.49697 17.861 8.00637 17.5985 7.58034C17.336 7.15432 16.9604 6.80963 16.5134 6.58473H16.5044ZM15.7035 9.79865L3.10418 16.1005C2.93873 16.1799 2.75295 16.2069 2.57175 16.1777C2.39055 16.1486 2.22259 16.0647 2.09039 15.9374C1.95819 15.81 1.86807 15.6453 1.83212 15.4653C1.79617 15.2852 1.8161 15.0985 1.88924 14.9301L4.04012 10.0957C4.06797 10.0312 4.09201 9.96505 4.11212 9.89768H10.3128C10.5515 9.89768 10.7804 9.80283 10.9491 9.634C11.1179 9.46517 11.2127 9.23618 11.2127 8.99742C11.2127 8.75866 11.1179 8.52967 10.9491 8.36084C10.7804 8.19201 10.5515 8.09716 10.3128 8.09716H4.11212C4.09201 8.02979 4.06797 7.96366 4.04012 7.89911L1.88924 3.06472C1.8161 2.89634 1.79617 2.70961 1.83212 2.52958C1.86807 2.34955 1.95819 2.18481 2.09039 2.05746C2.22259 1.93012 2.39055 1.84625 2.57175 1.8171C2.75295 1.78795 2.93873 1.81492 3.10418 1.89439L15.7035 8.19619C15.8509 8.27174 15.9746 8.38652 16.061 8.52789C16.1474 8.66926 16.1931 8.83173 16.1931 8.99742C16.1931 9.16311 16.1474 9.32559 16.061 9.46695C15.9746 9.60832 15.8509 9.7231 15.7035 9.79865Z" fill="white"/>
</svg>
